<?xml version="1.0" encoding="UTF-8" standalone="no"?>
<!-- Created with Inkscape (http://www.inkscape.org/) -->

<svg
   xmlns:dc="http://purl.org/dc/elements/1.1/"
   xmlns:cc="http://creativecommons.org/ns#"
   xmlns:rdf="http://www.w3.org/1999/02/22-rdf-syntax-ns#"
   xmlns:svg="http://www.w3.org/2000/svg"
   xmlns="http://www.w3.org/2000/svg"
   xmlns:sodipodi="http://sodipodi.sourceforge.net/DTD/sodipodi-0.dtd"
   xmlns:inkscape="http://www.inkscape.org/namespaces/inkscape"
   width="210mm"
   height="297mm"
   viewBox="0 0 210 297"
   version="1.1"
   id="svg8"
   inkscape:version="0.92.2 (5c3e80d, 2017-08-06)"
   sodipodi:docname="POC-DigitalesTürschild.svg">
  <defs
     id="defs2">
    <clipPath
       id="clipPath32"
       clipPathUnits="userSpaceOnUse">
      <path
         inkscape:connector-curvature="0"
         id="path30"
         d="M 0,595 H 842 V 0 H 0 Z" />
    </clipPath>
  </defs>
  <sodipodi:namedview
     id="base"
     pagecolor="#ffffff"
     bordercolor="#666666"
     borderopacity="1.0"
     inkscape:pageopacity="0.0"
     inkscape:pageshadow="2"
     inkscape:zoom="1.9625214"
     inkscape:cx="202.45548"
     inkscape:cy="465.18664"
     inkscape:document-units="mm"
     inkscape:current-layer="layer1"
     showgrid="false"
     inkscape:window-width="2880"
     inkscape:window-height="1510"
     inkscape:window-x="-12"
     inkscape:window-y="-12"
     inkscape:window-maximized="1"
     showguides="true"
     inkscape:guide-bbox="true">
    <sodipodi:guide
       position="29.387648,212.32813"
       orientation="1,0"
       id="guide87"
       inkscape:locked="false" />
  </sodipodi:namedview>
  <metadata
     id="metadata5">
    <rdf:RDF>
      <cc:Work
         rdf:about="">
        <dc:format>image/svg+xml</dc:format>
        <dc:type
           rdf:resource="http://purl.org/dc/dcmitype/StillImage" />
        <dc:title></dc:title>
      </cc:Work>
    </rdf:RDF>
  </metadata>
  <g
     inkscape:label="Ebene 1"
     inkscape:groupmode="layer"
     id="layer1">
    <rect
       id="rect10"
       width="163.2"
       height="97.919998"
       x="23.400002"
       y="25.646223"
       style="fill:none;stroke:#000000;stroke-width:0.26458332" />
    <rect
       style="fill:#000000;stroke:#000000;stroke-width:0.26458332"
       id="rect303"
       width="36.603718"
       height="26.755932"
       x="23.400002"
       y="167.64156" />
    <rect
       style="fill:none;stroke:#000000;stroke-width:0.26458332"
       y="167.64156"
       x="23.400002"
       height="97.919998"
       width="163.2"
       id="rect3701" />
    <g
       transform="matrix(0.03953048,0,0,-0.03953048,26.575004,50.75436)"
       inkscape:label="logo_visotech"
       id="g18"
       style="fill:#000000">
      <g
         transform="translate(206.564,210.4521)"
         id="g20"
         style="fill:#000000">
        <path
           inkscape:connector-curvature="0"
           id="path22"
           style="fill:#000000;fill-opacity:1;fill-rule:evenodd;stroke:none"
           d="m 0,0 -44.928,-101.664 h -21.96 L -110.232,0 h 24.624 L -55.368,-76.464 -24.624,0 Z" />
      </g>
      <path
         inkscape:connector-curvature="0"
         id="path24"
         style="fill:#000000;fill-opacity:1;fill-rule:evenodd;stroke:none"
         d="m 215.06,188.061 h 17.064 V 108.789 H 215.06 Z" />
      <g
         id="g26"
         style="fill:#000000">
        <g
           clip-path="url(#clipPath32)"
           id="g28"
           style="fill:#000000">
          <g
             transform="translate(248.252,108.7881)"
             id="g34"
             style="fill:#000000">
            <path
               inkscape:connector-curvature="0"
               id="path36"
               style="fill:#000000;fill-opacity:1;fill-rule:evenodd;stroke:none"
               d="m 0,0 v 14.111 h 36.576 c 5.832,0 9.792,0.577 11.736,1.729 2.808,1.656 4.248,4.177 4.248,7.488 0,3.816 -1.656,6.624 -4.968,8.424 -1.872,1.008 -4.896,1.512 -9,1.512 H 23.76 c -9.072,0 -15.624,1.656 -19.584,4.896 -2.52,2.016 -4.464,4.609 -5.904,7.704 -1.368,3.167 -2.088,6.48 -2.088,10.008 0,5.544 1.656,10.655 4.896,15.264 3.24,4.391 8.352,6.984 15.48,7.776 2.376,0.216 5.904,0.36 10.656,0.36 H 66.96 V 65.16 H 31.104 c -5.4,-0.072 -8.928,-0.288 -10.656,-0.721 -3.6,-0.863 -5.4,-3.599 -5.4,-8.063 0,-3.816 1.44,-6.336 4.464,-7.632 2.088,-0.936 5.4,-1.368 10.152,-1.368 H 42.48 c 6.552,0 11.52,-0.576 14.76,-1.656 5.616,-1.944 9.576,-5.256 11.664,-10.008 1.728,-3.816 2.592,-7.92 2.592,-12.312 0,-4.753 -1.152,-9.072 -3.384,-12.961 C 65.016,5.04 60.264,1.8 54,0.792 50.904,0.288 46.368,0 40.248,0 Z" />
          </g>
          <g
             transform="translate(367.2681,188.5645)"
             id="g38"
             style="fill:#000000">
            <path
               inkscape:connector-curvature="0"
               id="path40"
               style="fill:#000000;fill-opacity:1;fill-rule:evenodd;stroke:none"
               d="m 0,0 v 0 -13.393 c -7.776,0 -13.392,-2.519 -16.776,-7.56 -2.664,-3.959 -3.96,-10.296 -3.96,-19.079 0,-9.288 1.656,-16.056 5.04,-20.448 3.24,-4.249 8.496,-6.409 15.696,-6.481 v -13.247 c -8.496,0.144 -15.912,1.8 -22.32,4.968 -5.544,2.807 -9.864,7.128 -12.816,13.103 -2.952,5.905 -4.392,13.105 -4.392,21.6 0,15.12 3.744,25.849 11.376,32.257 6.408,5.4 15.768,8.208 28.152,8.28 m 0,0 c 7.992,0 15.048,-1.369 21.168,-4.104 7.128,-3.168 12.096,-8.568 14.976,-16.201 2.304,-5.903 3.456,-12.887 3.456,-20.952 0,-8.063 -1.44,-15.048 -4.176,-20.951 -3.456,-7.129 -8.712,-12.097 -15.84,-14.904 C 14.256,-79.2 8.136,-80.208 1.224,-80.208 H 0 v 13.247 h 0.216 c 6.984,0 12.24,2.232 15.552,6.553 3.312,4.391 5.04,11.088 5.04,20.232 0,8.28 -1.368,14.615 -4.104,19.008 -3.168,5.111 -8.712,7.775 -16.56,7.775 H 0 Z" />
          </g>
          <g
             transform="translate(444.1641,192.3799)"
             id="g42"
             style="fill:#000000">
            <path
               inkscape:connector-curvature="0"
               id="path44"
               style="fill:#000000;fill-opacity:1;fill-rule:evenodd;stroke:none"
               d="m 0,0 h -32.688 v 18.072 h 88.56 V 0 H 21.816 V -83.592 H 0 Z" />
          </g>
          <g
             transform="translate(569.084,188.0605)"
             id="g46"
             style="fill:#000000">
            <path
               inkscape:connector-curvature="0"
               id="path48"
               style="fill:#000000;fill-opacity:1;fill-rule:evenodd;stroke:none"
               d="m 0,0 v -14.112 h -22.248 c -5.832,0 -10.08,-0.433 -12.672,-1.225 -2.664,-0.792 -4.824,-2.304 -6.624,-4.607 -1.151,-1.513 -1.944,-3.097 -2.376,-4.681 -0.433,-1.583 -0.792,-4.319 -1.152,-8.136 H 0 v -14.111 h -45.072 c 0.576,-6.841 2.592,-11.593 6.049,-14.257 3.455,-2.736 9.287,-4.032 17.567,-4.032 H 0 v -14.111 h -22.248 c -5.977,0 -11.304,0.359 -15.912,1.151 -7.2,1.08 -12.888,4.249 -17.208,9.288 -6.048,7.272 -9.072,17.137 -9.072,29.592 0,13.824 4.32,24.553 12.888,32.257 2.88,2.591 6.048,4.391 9.361,5.4 C -38.88,-0.576 -34.416,0 -28.8,0 Z" />
          </g>
          <g
             transform="translate(643.46,122.8994)"
             id="g50"
             style="fill:#000000">
            <path
               inkscape:connector-curvature="0"
               id="path52"
               style="fill:#000000;fill-opacity:1;fill-rule:evenodd;stroke:none"
               d="m 0,0 v -14.111 h -27.937 c -5.328,0 -9.359,0.288 -12.239,0.792 -9.792,1.943 -16.776,7.343 -20.952,16.343 -2.736,5.977 -4.103,13.392 -4.103,22.248 0,10.657 2.16,19.369 6.335,26.064 2.952,4.753 7.056,8.28 12.096,10.513 5.04,2.16 11.592,3.312 19.655,3.312 H 0 V 51.049 h -25.2 c -7.632,0 -13.176,-2.017 -16.776,-6.048 -2.952,-3.385 -4.392,-9.36 -4.392,-18.145 0,-11.664 2.305,-19.367 6.84,-23.04 C -36.288,1.296 -31.32,0 -24.552,0 Z" />
          </g>
          <g
             transform="translate(719.6357,188.0605)"
             id="g54"
             style="fill:#000000">
            <path
               inkscape:connector-curvature="0"
               id="path56"
               style="fill:#000000;fill-opacity:1;fill-rule:evenodd;stroke:none"
               d="M 0,0 V -79.272 H -16.991 V -46.44 H -48.024 V -79.272 H -65.016 V 0 h 16.992 v -32.4 h 31.033 V 0 Z" />
          </g>
          <g
             transform="translate(346.8198,275.54)"
             id="g58"
             style="fill:#000000">
            <path
               inkscape:connector-curvature="0"
               id="path60"
               style="fill:#000000;fill-opacity:1;fill-rule:evenodd;stroke:none"
               d="m 0,0 29.592,21.528 c 4.824,3.456 11.52,2.592 14.832,-1.873 L 56.376,3.168 c 3.312,-4.536 2.088,-11.16 -2.736,-14.689 L 23.976,-33.048 c -4.824,-3.456 -11.448,-2.664 -14.76,1.872 l -12.024,16.56 C -6.12,-10.08 -4.824,-3.528 0,0" />
          </g>
          <g
             transform="translate(502.4121,388.5801)"
             id="g62"
             style="fill:#000000">
            <path
               inkscape:connector-curvature="0"
               id="path64"
               style="fill:#000000;fill-opacity:1;fill-rule:evenodd;stroke:none"
               d="m 0,0 29.664,21.528 c 4.824,3.528 11.447,2.664 14.76,-1.872 L 56.447,3.168 C 59.76,-1.368 58.464,-7.992 53.64,-11.52 L 24.048,-32.976 C 19.224,-36.504 12.527,-35.64 9.216,-31.104 L -2.736,-14.616 C -6.048,-10.08 -4.824,-3.456 0,0" />
          </g>
          <g
             transform="translate(319.3882,313.1958)"
             id="g66"
             style="fill:#000000">
            <path
               inkscape:connector-curvature="0"
               id="path68"
               style="fill:#000000;fill-opacity:1;fill-rule:evenodd;stroke:none"
               d="m 0,0 29.592,21.528 c 4.896,3.528 11.52,2.664 14.832,-1.872 L 56.376,3.168 c 3.312,-4.536 2.088,-11.16 -2.736,-14.616 L 23.976,-32.904 c -4.824,-3.527 -11.448,-2.664 -14.76,1.872 L -2.808,-14.616 C -6.048,-10.08 -4.824,-3.456 0,0" />
          </g>
          <g
             transform="translate(291.9561,350.9961)"
             id="g70"
             style="fill:#000000">
            <path
               inkscape:connector-curvature="0"
               id="path72"
               style="fill:#000000;fill-opacity:1;fill-rule:evenodd;stroke:none"
               d="m 0,0 29.664,21.528 c 4.824,3.456 11.448,2.592 14.76,-1.944 L 56.376,3.096 C 59.688,-1.44 58.464,-7.992 53.64,-11.52 L 23.976,-33.048 c -4.824,-3.528 -11.448,-2.664 -14.76,1.872 L -2.736,-14.688 C -6.048,-10.152 -4.824,-3.528 0,0" />
          </g>
          <g
             transform="translate(212.6118,350.9961)"
             id="g74"
             style="fill:#000000">
            <path
               inkscape:connector-curvature="0"
               id="path76"
               style="fill:#000000;fill-opacity:1;fill-rule:evenodd;stroke:none"
               d="m 0,0 29.664,21.528 c 4.824,3.528 11.448,2.664 14.76,-1.872 L 56.448,3.168 C 59.76,-1.368 58.464,-7.992 53.64,-11.52 L 24.048,-33.048 c -4.824,-3.456 -11.52,-2.664 -14.832,1.872 l -11.952,16.56 C -6.048,-10.08 -4.824,-3.528 0,0" />
          </g>
          <g
             transform="translate(160.772,313.2681)"
             id="g78"
             style="fill:#000000">
            <path
               inkscape:connector-curvature="0"
               id="path80"
               style="fill:#000000;fill-opacity:1;fill-rule:evenodd;stroke:none"
               d="m 0,0 29.592,21.528 c 4.824,3.528 11.448,2.664 14.76,-1.872 L 56.376,3.168 c 3.312,-4.536 2.016,-11.16 -2.808,-14.616 L 23.976,-32.904 c -4.824,-3.528 -11.52,-2.664 -14.76,1.871 L -2.808,-14.616 C -6.12,-10.08 -4.824,-3.456 0,0" />
          </g>
          <g
             transform="translate(108.8599,275.6836)"
             id="g82"
             style="fill:#000000">
            <path
               inkscape:connector-curvature="0"
               id="path84"
               style="fill:#000000;fill-opacity:1;fill-rule:evenodd;stroke:none"
               d="m 0,0 29.592,21.528 c 4.824,3.385 11.52,2.593 14.76,-1.872 L 56.376,3.096 C 59.688,-1.439 58.464,-7.992 53.64,-11.52 L 23.976,-33.048 c -4.824,-3.528 -11.448,-2.663 -14.76,1.872 L -2.808,-14.688 C -6.12,-10.08 -4.824,-3.527 0,0" />
          </g>
          <g
             transform="translate(188.2041,275.6113)"
             id="g86"
             style="fill:#000000">
            <path
               inkscape:connector-curvature="0"
               id="path88"
               style="fill:#000000;fill-opacity:1;fill-rule:evenodd;stroke:none"
               d="m 0,0 29.592,21.529 c 4.824,3.456 11.448,2.592 14.76,-1.872 L 56.376,3.168 C 59.688,-1.367 58.392,-7.991 53.568,-11.52 L 23.976,-33.047 c -4.824,-3.457 -11.52,-2.665 -14.76,1.943 L -2.808,-14.615 C -6.12,-10.079 -4.896,-3.527 0,0" />
          </g>
          <g
             transform="translate(240.0439,313.2681)"
             id="g90"
             style="fill:#000000">
            <path
               inkscape:connector-curvature="0"
               id="path92"
               style="fill:#000000;fill-opacity:1;fill-rule:evenodd;stroke:none"
               d="m 0,0 29.664,21.528 c 4.824,3.528 11.448,2.664 14.76,-1.872 L 56.448,3.096 C 59.688,-1.44 58.464,-7.992 53.64,-11.52 L 24.048,-32.976 c -4.824,-3.527 -11.52,-2.664 -14.832,1.872 L -2.736,-14.616 C -6.048,-10.08 -4.824,-3.528 0,0" />
          </g>
          <g
             transform="translate(267.4761,275.6113)"
             id="g94"
             style="fill:#000000">
            <path
               inkscape:connector-curvature="0"
               id="path96"
               style="fill:#000000;fill-opacity:1;fill-rule:evenodd;stroke:none"
               d="m 0,0 29.664,21.529 c 4.824,3.384 11.448,2.592 14.76,-1.945 L 56.448,3.097 C 59.688,-1.439 58.464,-7.991 53.64,-11.52 L 23.976,-33.047 c -4.824,-3.528 -11.448,-2.665 -14.76,1.871 L -2.736,-14.688 C -6.048,-10.151 -4.824,-3.527 0,0" />
          </g>
          <g
             transform="translate(474.9805,426.3081)"
             id="g98"
             style="fill:#000000">
            <path
               inkscape:connector-curvature="0"
               id="path100"
               style="fill:#000000;fill-opacity:1;fill-rule:evenodd;stroke:none"
               d="m 0,0 29.663,21.528 c 4.824,3.528 11.448,2.664 14.761,-1.872 L 56.447,3.168 C 59.76,-1.368 58.463,-7.992 53.64,-11.448 L 24.047,-32.976 c -4.823,-3.528 -11.52,-2.664 -14.759,1.872 L -2.736,-14.616 C -6.049,-10.08 -4.824,-3.456 0,0" />
          </g>
          <g
             transform="translate(447.6201,464.1079)"
             id="g102"
             style="fill:#000000">
            <path
               inkscape:connector-curvature="0"
               id="path104"
               style="fill:#000000;fill-opacity:1;fill-rule:evenodd;stroke:none"
               d="m 0,0 29.592,21.528 c 4.824,3.456 11.448,2.664 14.761,-1.872 L 56.376,3.096 C 59.688,-1.44 58.392,-7.992 53.568,-11.52 L 23.976,-33.048 c -4.824,-3.528 -11.52,-2.664 -14.76,1.872 L -2.808,-14.688 C -6.12,-10.08 -4.824,-3.528 0,0" />
          </g>
          <g
             transform="translate(368.3481,464.1079)"
             id="g106"
             style="fill:#000000">
            <path
               inkscape:connector-curvature="0"
               id="path108"
               style="fill:#000000;fill-opacity:1;fill-rule:evenodd;stroke:none"
               d="m 0,0 29.592,21.528 c 4.824,3.528 11.52,2.664 14.832,-1.872 L 56.304,3.168 c 3.312,-4.536 2.088,-11.16 -2.736,-14.688 L 23.976,-32.976 c -4.824,-3.528 -11.448,-2.664 -14.76,1.872 L -2.808,-14.616 C -6.12,-10.08 -4.824,-3.528 0,0" />
          </g>
          <g
             transform="translate(316.436,426.4521)"
             id="g110"
             style="fill:#000000">
            <path
               inkscape:connector-curvature="0"
               id="path112"
               style="fill:#000000;fill-opacity:1;fill-rule:evenodd;stroke:none"
               d="m 0,0 29.664,21.456 c 4.824,3.528 11.448,2.664 14.76,-1.872 L 56.376,3.096 C 59.688,-1.44 58.464,-8.064 53.64,-11.52 L 23.976,-33.048 c -4.824,-3.528 -11.448,-2.664 -14.76,1.872 L -2.808,-14.688 C -6.048,-10.152 -4.824,-3.528 0,0" />
          </g>
          <g
             transform="translate(264.5239,388.7241)"
             id="g114"
             style="fill:#000000">
            <path
               inkscape:connector-curvature="0"
               id="path116"
               style="fill:#000000;fill-opacity:1;fill-rule:evenodd;stroke:none"
               d="m 0,0 29.664,21.528 c 4.824,3.456 11.448,2.664 14.76,-1.872 L 56.448,3.096 C 59.688,-1.44 58.464,-7.992 53.64,-11.52 L 24.048,-33.048 c -4.896,-3.528 -11.52,-2.664 -14.832,1.872 l -11.952,16.56 C -6.048,-10.08 -4.824,-3.528 0,0" />
          </g>
          <g
             transform="translate(343.8682,388.6519)"
             id="g118"
             style="fill:#000000">
            <path
               inkscape:connector-curvature="0"
               id="path120"
               style="fill:#000000;fill-opacity:1;fill-rule:evenodd;stroke:none"
               d="m 0,0 29.592,21.528 c 4.824,3.528 11.52,2.664 14.832,-1.872 L 56.376,3.168 c 3.312,-4.536 2.088,-11.16 -2.736,-14.616 L 23.976,-32.976 c -4.824,-3.528 -11.448,-2.664 -14.76,1.872 L -2.808,-14.616 C -6.048,-10.08 -4.824,-3.456 0,0" />
          </g>
          <g
             transform="translate(423.1396,388.6519)"
             id="g122"
             style="fill:#000000">
            <path
               inkscape:connector-curvature="0"
               id="path124"
               style="fill:#000000;fill-opacity:1;fill-rule:evenodd;stroke:none"
               d="m 0,0 29.592,21.528 c 4.825,3.456 11.52,2.664 14.761,-1.872 L 56.376,3.096 C 59.688,-1.44 58.393,-7.992 53.568,-11.52 L 23.977,-33.048 c -4.825,-3.528 -11.449,-2.664 -14.76,1.872 L -2.736,-14.688 C -6.048,-10.08 -4.751,-3.528 0,0" />
          </g>
          <g
             transform="translate(395.7798,426.3799)"
             id="g126"
             style="fill:#000000">
            <path
               inkscape:connector-curvature="0"
               id="path128"
               style="fill:#000000;fill-opacity:1;fill-rule:evenodd;stroke:none"
               d="m 0,0 29.52,21.528 c 4.824,3.528 11.52,2.664 14.761,-1.872 L 56.304,3.096 C 59.617,-1.44 58.392,-7.992 53.568,-11.52 L 23.976,-33.048 c -4.824,-3.456 -11.448,-2.664 -14.76,1.872 l -12.024,16.56 C -6.12,-10.08 -4.824,-3.528 0,0" />
          </g>
        </g>
      </g>
    </g>
    <text
       xml:space="preserve"
       style="font-style:normal;font-weight:normal;font-size:10.58333302px;line-height:1.25;font-family:sans-serif;letter-spacing:0px;word-spacing:0px;fill:#000000;fill-opacity:1;stroke:none;stroke-width:0.26458332"
       x="66.090111"
       y="43.211468"
       id="text67"><tspan
         sodipodi:role="line"
         id="tspan65"
         x="66.090111"
         y="43.211468"
         style="stroke-width:0.26458332">Besprechungsraum 3</tspan></text>
    <path
       style="fill:none;stroke:#000000;stroke-width:0.2765789px;stroke-linecap:butt;stroke-linejoin:miter;stroke-opacity:1"
       d="M 23.443546,52.464497 H 186.55552"
       id="path73"
       inkscape:connector-curvature="0" />
    <path
       style="fill:none;stroke:#000000;stroke-width:0.28473926px;stroke-linecap:butt;stroke-linejoin:miter;stroke-opacity:1"
       d="M 60.003718,25.589472 V 52.402158"
       id="path70"
       inkscape:connector-curvature="0" />
    <path
       inkscape:connector-curvature="0"
       id="path77"
       d="M 23.443546,89.411669 H 186.55552"
       style="fill:none;stroke:#000000;stroke-width:0.2765789px;stroke-linecap:butt;stroke-linejoin:miter;stroke-opacity:1" />
    <text
       xml:space="preserve"
       style="font-style:normal;font-weight:normal;font-size:10.58333302px;line-height:1.25;font-family:sans-serif;letter-spacing:0px;word-spacing:0px;fill:#000000;fill-opacity:1;stroke:none;stroke-width:0.26458332"
       x="102.19192"
       y="69.211609"
       id="text81"><tspan
         sodipodi:role="line"
         id="tspan79"
         x="102.19192"
         y="69.211609"
         style="font-size:14.11111069px;text-align:center;text-anchor:middle;stroke-width:0.26458332">Frei</tspan><tspan
         sodipodi:role="line"
         x="102.19192"
         y="83.72924"
         style="font-size:8.46666622px;text-align:center;text-anchor:middle;stroke-width:0.26458332"
         id="tspan107">bis 10:00</tspan></text>
    <text
       xml:space="preserve"
       style="font-style:normal;font-weight:normal;font-size:10.58333302px;line-height:1.25;font-family:sans-serif;letter-spacing:0px;word-spacing:0px;fill:#000000;fill-opacity:1;stroke:none;stroke-width:0.26458332"
       x="28.788265"
       y="101.78869"
       id="text91"><tspan
         sodipodi:role="line"
         x="28.788265"
         y="101.78869"
         style="font-size:5.64444447px;stroke-width:0.26458332"
         id="tspan105">10:00</tspan></text>
    <text
       xml:space="preserve"
       style="font-style:normal;font-weight:normal;font-size:10.58333302px;line-height:1.25;font-family:sans-serif;letter-spacing:0px;word-spacing:0px;fill:#000000;fill-opacity:1;stroke:none;stroke-width:0.26458332"
       x="53.289894"
       y="104.81316"
       id="text113"><tspan
         sodipodi:role="line"
         id="tspan111"
         x="53.289894"
         y="104.81316"
         style="stroke-width:0.26458332">JIRA Insight - CMDB</tspan></text>
    <text
       xml:space="preserve"
       style="font-style:normal;font-weight:normal;font-size:10.58333302px;line-height:1.25;font-family:sans-serif;letter-spacing:0px;word-spacing:0px;fill:#000000;fill-opacity:1;stroke:none;stroke-width:0.26458332"
       x="52.622581"
       y="114.34625"
       id="text117"><tspan
         sodipodi:role="line"
         id="tspan115"
         x="52.622581"
         y="114.34625"
         style="font-size:5.64444447px;stroke-width:0.26458332">Andreas Werschlan</tspan></text>
    <text
       xml:space="preserve"
       style="font-style:normal;font-weight:normal;font-size:10.58333302px;line-height:1.25;font-family:sans-serif;letter-spacing:0px;word-spacing:0px;fill:#000000;fill-opacity:1;stroke:none;stroke-width:0.26458332"
       x="28.789892"
       y="114.34624"
       id="text123"><tspan
         sodipodi:role="line"
         id="tspan121"
         x="28.789892"
         y="114.34624"
         style="font-size:5.64444447px;stroke-width:0.26458332">12:00</tspan></text>
    <rect
       style="fill:none;stroke:#000000;stroke-width:0.26458332"
       y="167.64156"
       x="23.400002"
       height="97.919998"
       width="163.2"
       id="rect125" />
    <g
       id="g233"
       inkscape:label="logo_visotech"
       transform="matrix(0.03953048,0,0,-0.03953048,26.575004,192.74969)"
       style="fill:#ffffff">
      <g
         id="g129"
         transform="translate(206.564,210.4521)"
         style="fill:#ffffff">
        <path
           d="m 0,0 -44.928,-101.664 h -21.96 L -110.232,0 h 24.624 L -55.368,-76.464 -24.624,0 Z"
           style="fill:#ffffff;fill-opacity:1;fill-rule:evenodd;stroke:none"
           id="path127"
           inkscape:connector-curvature="0" />
      </g>
      <path
         d="m 215.06,188.061 h 17.064 V 108.789 H 215.06 Z"
         style="fill:#ffffff;fill-opacity:1;fill-rule:evenodd;stroke:none"
         id="path131"
         inkscape:connector-curvature="0" />
      <g
         id="g231"
         style="fill:#ffffff">
        <g
           id="g229"
           clip-path="url(#clipPath32)"
           style="fill:#ffffff">
          <g
             id="g135"
             transform="translate(248.252,108.7881)"
             style="fill:#ffffff">
            <path
               d="m 0,0 v 14.111 h 36.576 c 5.832,0 9.792,0.577 11.736,1.729 2.808,1.656 4.248,4.177 4.248,7.488 0,3.816 -1.656,6.624 -4.968,8.424 -1.872,1.008 -4.896,1.512 -9,1.512 H 23.76 c -9.072,0 -15.624,1.656 -19.584,4.896 -2.52,2.016 -4.464,4.609 -5.904,7.704 -1.368,3.167 -2.088,6.48 -2.088,10.008 0,5.544 1.656,10.655 4.896,15.264 3.24,4.391 8.352,6.984 15.48,7.776 2.376,0.216 5.904,0.36 10.656,0.36 H 66.96 V 65.16 H 31.104 c -5.4,-0.072 -8.928,-0.288 -10.656,-0.721 -3.6,-0.863 -5.4,-3.599 -5.4,-8.063 0,-3.816 1.44,-6.336 4.464,-7.632 2.088,-0.936 5.4,-1.368 10.152,-1.368 H 42.48 c 6.552,0 11.52,-0.576 14.76,-1.656 5.616,-1.944 9.576,-5.256 11.664,-10.008 1.728,-3.816 2.592,-7.92 2.592,-12.312 0,-4.753 -1.152,-9.072 -3.384,-12.961 C 65.016,5.04 60.264,1.8 54,0.792 50.904,0.288 46.368,0 40.248,0 Z"
               style="fill:#ffffff;fill-opacity:1;fill-rule:evenodd;stroke:none"
               id="path133"
               inkscape:connector-curvature="0" />
          </g>
          <g
             id="g139"
             transform="translate(367.2681,188.5645)"
             style="fill:#ffffff">
            <path
               d="m 0,0 v 0 -13.393 c -7.776,0 -13.392,-2.519 -16.776,-7.56 -2.664,-3.959 -3.96,-10.296 -3.96,-19.079 0,-9.288 1.656,-16.056 5.04,-20.448 3.24,-4.249 8.496,-6.409 15.696,-6.481 v -13.247 c -8.496,0.144 -15.912,1.8 -22.32,4.968 -5.544,2.807 -9.864,7.128 -12.816,13.103 -2.952,5.905 -4.392,13.105 -4.392,21.6 0,15.12 3.744,25.849 11.376,32.257 6.408,5.4 15.768,8.208 28.152,8.28 m 0,0 c 7.992,0 15.048,-1.369 21.168,-4.104 7.128,-3.168 12.096,-8.568 14.976,-16.201 2.304,-5.903 3.456,-12.887 3.456,-20.952 0,-8.063 -1.44,-15.048 -4.176,-20.951 -3.456,-7.129 -8.712,-12.097 -15.84,-14.904 C 14.256,-79.2 8.136,-80.208 1.224,-80.208 H 0 v 13.247 h 0.216 c 6.984,0 12.24,2.232 15.552,6.553 3.312,4.391 5.04,11.088 5.04,20.232 0,8.28 -1.368,14.615 -4.104,19.008 -3.168,5.111 -8.712,7.775 -16.56,7.775 H 0 Z"
               style="fill:#ffffff;fill-opacity:1;fill-rule:evenodd;stroke:none"
               id="path137"
               inkscape:connector-curvature="0" />
          </g>
          <g
             id="g143"
             transform="translate(444.1641,192.3799)"
             style="fill:#ffffff">
            <path
               d="m 0,0 h -32.688 v 18.072 h 88.56 V 0 H 21.816 V -83.592 H 0 Z"
               style="fill:#ffffff;fill-opacity:1;fill-rule:evenodd;stroke:none"
               id="path141"
               inkscape:connector-curvature="0" />
          </g>
          <g
             id="g147"
             transform="translate(569.084,188.0605)"
             style="fill:#ffffff">
            <path
               d="m 0,0 v -14.112 h -22.248 c -5.832,0 -10.08,-0.433 -12.672,-1.225 -2.664,-0.792 -4.824,-2.304 -6.624,-4.607 -1.151,-1.513 -1.944,-3.097 -2.376,-4.681 -0.433,-1.583 -0.792,-4.319 -1.152,-8.136 H 0 v -14.111 h -45.072 c 0.576,-6.841 2.592,-11.593 6.049,-14.257 3.455,-2.736 9.287,-4.032 17.567,-4.032 H 0 v -14.111 h -22.248 c -5.977,0 -11.304,0.359 -15.912,1.151 -7.2,1.08 -12.888,4.249 -17.208,9.288 -6.048,7.272 -9.072,17.137 -9.072,29.592 0,13.824 4.32,24.553 12.888,32.257 2.88,2.591 6.048,4.391 9.361,5.4 C -38.88,-0.576 -34.416,0 -28.8,0 Z"
               style="fill:#ffffff;fill-opacity:1;fill-rule:evenodd;stroke:none"
               id="path145"
               inkscape:connector-curvature="0" />
          </g>
          <g
             id="g151"
             transform="translate(643.46,122.8994)"
             style="fill:#ffffff">
            <path
               d="m 0,0 v -14.111 h -27.937 c -5.328,0 -9.359,0.288 -12.239,0.792 -9.792,1.943 -16.776,7.343 -20.952,16.343 -2.736,5.977 -4.103,13.392 -4.103,22.248 0,10.657 2.16,19.369 6.335,26.064 2.952,4.753 7.056,8.28 12.096,10.513 5.04,2.16 11.592,3.312 19.655,3.312 H 0 V 51.049 h -25.2 c -7.632,0 -13.176,-2.017 -16.776,-6.048 -2.952,-3.385 -4.392,-9.36 -4.392,-18.145 0,-11.664 2.305,-19.367 6.84,-23.04 C -36.288,1.296 -31.32,0 -24.552,0 Z"
               style="fill:#ffffff;fill-opacity:1;fill-rule:evenodd;stroke:none"
               id="path149"
               inkscape:connector-curvature="0" />
          </g>
          <g
             id="g155"
             transform="translate(719.6357,188.0605)"
             style="fill:#ffffff">
            <path
               d="M 0,0 V -79.272 H -16.991 V -46.44 H -48.024 V -79.272 H -65.016 V 0 h 16.992 v -32.4 h 31.033 V 0 Z"
               style="fill:#ffffff;fill-opacity:1;fill-rule:evenodd;stroke:none"
               id="path153"
               inkscape:connector-curvature="0" />
          </g>
          <g
             id="g159"
             transform="translate(346.8198,275.54)"
             style="fill:#ffffff">
            <path
               d="m 0,0 29.592,21.528 c 4.824,3.456 11.52,2.592 14.832,-1.873 L 56.376,3.168 c 3.312,-4.536 2.088,-11.16 -2.736,-14.689 L 23.976,-33.048 c -4.824,-3.456 -11.448,-2.664 -14.76,1.872 l -12.024,16.56 C -6.12,-10.08 -4.824,-3.528 0,0"
               style="fill:#ffffff;fill-opacity:1;fill-rule:evenodd;stroke:none"
               id="path157"
               inkscape:connector-curvature="0" />
          </g>
          <g
             id="g163"
             transform="translate(502.4121,388.5801)"
             style="fill:#ffffff">
            <path
               d="m 0,0 29.664,21.528 c 4.824,3.528 11.447,2.664 14.76,-1.872 L 56.447,3.168 C 59.76,-1.368 58.464,-7.992 53.64,-11.52 L 24.048,-32.976 C 19.224,-36.504 12.527,-35.64 9.216,-31.104 L -2.736,-14.616 C -6.048,-10.08 -4.824,-3.456 0,0"
               style="fill:#ffffff;fill-opacity:1;fill-rule:evenodd;stroke:none"
               id="path161"
               inkscape:connector-curvature="0" />
          </g>
          <g
             id="g167"
             transform="translate(319.3882,313.1958)"
             style="fill:#ffffff">
            <path
               d="m 0,0 29.592,21.528 c 4.896,3.528 11.52,2.664 14.832,-1.872 L 56.376,3.168 c 3.312,-4.536 2.088,-11.16 -2.736,-14.616 L 23.976,-32.904 c -4.824,-3.527 -11.448,-2.664 -14.76,1.872 L -2.808,-14.616 C -6.048,-10.08 -4.824,-3.456 0,0"
               style="fill:#ffffff;fill-opacity:1;fill-rule:evenodd;stroke:none"
               id="path165"
               inkscape:connector-curvature="0" />
          </g>
          <g
             id="g171"
             transform="translate(291.9561,350.9961)"
             style="fill:#ffffff">
            <path
               d="m 0,0 29.664,21.528 c 4.824,3.456 11.448,2.592 14.76,-1.944 L 56.376,3.096 C 59.688,-1.44 58.464,-7.992 53.64,-11.52 L 23.976,-33.048 c -4.824,-3.528 -11.448,-2.664 -14.76,1.872 L -2.736,-14.688 C -6.048,-10.152 -4.824,-3.528 0,0"
               style="fill:#ffffff;fill-opacity:1;fill-rule:evenodd;stroke:none"
               id="path169"
               inkscape:connector-curvature="0" />
          </g>
          <g
             id="g175"
             transform="translate(212.6118,350.9961)"
             style="fill:#ffffff">
            <path
               d="m 0,0 29.664,21.528 c 4.824,3.528 11.448,2.664 14.76,-1.872 L 56.448,3.168 C 59.76,-1.368 58.464,-7.992 53.64,-11.52 L 24.048,-33.048 c -4.824,-3.456 -11.52,-2.664 -14.832,1.872 l -11.952,16.56 C -6.048,-10.08 -4.824,-3.528 0,0"
               style="fill:#ffffff;fill-opacity:1;fill-rule:evenodd;stroke:none"
               id="path173"
               inkscape:connector-curvature="0" />
          </g>
          <g
             id="g179"
             transform="translate(160.772,313.2681)"
             style="fill:#ffffff">
            <path
               d="m 0,0 29.592,21.528 c 4.824,3.528 11.448,2.664 14.76,-1.872 L 56.376,3.168 c 3.312,-4.536 2.016,-11.16 -2.808,-14.616 L 23.976,-32.904 c -4.824,-3.528 -11.52,-2.664 -14.76,1.871 L -2.808,-14.616 C -6.12,-10.08 -4.824,-3.456 0,0"
               style="fill:#ffffff;fill-opacity:1;fill-rule:evenodd;stroke:none"
               id="path177"
               inkscape:connector-curvature="0" />
          </g>
          <g
             id="g183"
             transform="translate(108.8599,275.6836)"
             style="fill:#ffffff">
            <path
               d="m 0,0 29.592,21.528 c 4.824,3.385 11.52,2.593 14.76,-1.872 L 56.376,3.096 C 59.688,-1.439 58.464,-7.992 53.64,-11.52 L 23.976,-33.048 c -4.824,-3.528 -11.448,-2.663 -14.76,1.872 L -2.808,-14.688 C -6.12,-10.08 -4.824,-3.527 0,0"
               style="fill:#ffffff;fill-opacity:1;fill-rule:evenodd;stroke:none"
               id="path181"
               inkscape:connector-curvature="0" />
          </g>
          <g
             id="g187"
             transform="translate(188.2041,275.6113)"
             style="fill:#ffffff">
            <path
               d="m 0,0 29.592,21.529 c 4.824,3.456 11.448,2.592 14.76,-1.872 L 56.376,3.168 C 59.688,-1.367 58.392,-7.991 53.568,-11.52 L 23.976,-33.047 c -4.824,-3.457 -11.52,-2.665 -14.76,1.943 L -2.808,-14.615 C -6.12,-10.079 -4.896,-3.527 0,0"
               style="fill:#ffffff;fill-opacity:1;fill-rule:evenodd;stroke:none"
               id="path185"
               inkscape:connector-curvature="0" />
          </g>
          <g
             id="g191"
             transform="translate(240.0439,313.2681)"
             style="fill:#ffffff">
            <path
               d="m 0,0 29.664,21.528 c 4.824,3.528 11.448,2.664 14.76,-1.872 L 56.448,3.096 C 59.688,-1.44 58.464,-7.992 53.64,-11.52 L 24.048,-32.976 c -4.824,-3.527 -11.52,-2.664 -14.832,1.872 L -2.736,-14.616 C -6.048,-10.08 -4.824,-3.528 0,0"
               style="fill:#ffffff;fill-opacity:1;fill-rule:evenodd;stroke:none"
               id="path189"
               inkscape:connector-curvature="0" />
          </g>
          <g
             id="g195"
             transform="translate(267.4761,275.6113)"
             style="fill:#ffffff">
            <path
               d="m 0,0 29.664,21.529 c 4.824,3.384 11.448,2.592 14.76,-1.945 L 56.448,3.097 C 59.688,-1.439 58.464,-7.991 53.64,-11.52 L 23.976,-33.047 c -4.824,-3.528 -11.448,-2.665 -14.76,1.871 L -2.736,-14.688 C -6.048,-10.151 -4.824,-3.527 0,0"
               style="fill:#ffffff;fill-opacity:1;fill-rule:evenodd;stroke:none"
               id="path193"
               inkscape:connector-curvature="0" />
          </g>
          <g
             id="g199"
             transform="translate(474.9805,426.3081)"
             style="fill:#ffffff">
            <path
               d="m 0,0 29.663,21.528 c 4.824,3.528 11.448,2.664 14.761,-1.872 L 56.447,3.168 C 59.76,-1.368 58.463,-7.992 53.64,-11.448 L 24.047,-32.976 c -4.823,-3.528 -11.52,-2.664 -14.759,1.872 L -2.736,-14.616 C -6.049,-10.08 -4.824,-3.456 0,0"
               style="fill:#ffffff;fill-opacity:1;fill-rule:evenodd;stroke:none"
               id="path197"
               inkscape:connector-curvature="0" />
          </g>
          <g
             id="g203"
             transform="translate(447.6201,464.1079)"
             style="fill:#ffffff">
            <path
               d="m 0,0 29.592,21.528 c 4.824,3.456 11.448,2.664 14.761,-1.872 L 56.376,3.096 C 59.688,-1.44 58.392,-7.992 53.568,-11.52 L 23.976,-33.048 c -4.824,-3.528 -11.52,-2.664 -14.76,1.872 L -2.808,-14.688 C -6.12,-10.08 -4.824,-3.528 0,0"
               style="fill:#ffffff;fill-opacity:1;fill-rule:evenodd;stroke:none"
               id="path201"
               inkscape:connector-curvature="0" />
          </g>
          <g
             id="g207"
             transform="translate(368.3481,464.1079)"
             style="fill:#ffffff">
            <path
               d="m 0,0 29.592,21.528 c 4.824,3.528 11.52,2.664 14.832,-1.872 L 56.304,3.168 c 3.312,-4.536 2.088,-11.16 -2.736,-14.688 L 23.976,-32.976 c -4.824,-3.528 -11.448,-2.664 -14.76,1.872 L -2.808,-14.616 C -6.12,-10.08 -4.824,-3.528 0,0"
               style="fill:#ffffff;fill-opacity:1;fill-rule:evenodd;stroke:none"
               id="path205"
               inkscape:connector-curvature="0" />
          </g>
          <g
             id="g211"
             transform="translate(316.436,426.4521)"
             style="fill:#ffffff">
            <path
               d="m 0,0 29.664,21.456 c 4.824,3.528 11.448,2.664 14.76,-1.872 L 56.376,3.096 C 59.688,-1.44 58.464,-8.064 53.64,-11.52 L 23.976,-33.048 c -4.824,-3.528 -11.448,-2.664 -14.76,1.872 L -2.808,-14.688 C -6.048,-10.152 -4.824,-3.528 0,0"
               style="fill:#ffffff;fill-opacity:1;fill-rule:evenodd;stroke:none"
               id="path209"
               inkscape:connector-curvature="0" />
          </g>
          <g
             id="g215"
             transform="translate(264.5239,388.7241)"
             style="fill:#ffffff">
            <path
               d="m 0,0 29.664,21.528 c 4.824,3.456 11.448,2.664 14.76,-1.872 L 56.448,3.096 C 59.688,-1.44 58.464,-7.992 53.64,-11.52 L 24.048,-33.048 c -4.896,-3.528 -11.52,-2.664 -14.832,1.872 l -11.952,16.56 C -6.048,-10.08 -4.824,-3.528 0,0"
               style="fill:#ffffff;fill-opacity:1;fill-rule:evenodd;stroke:none"
               id="path213"
               inkscape:connector-curvature="0" />
          </g>
          <g
             id="g219"
             transform="translate(343.8682,388.6519)"
             style="fill:#ffffff">
            <path
               d="m 0,0 29.592,21.528 c 4.824,3.528 11.52,2.664 14.832,-1.872 L 56.376,3.168 c 3.312,-4.536 2.088,-11.16 -2.736,-14.616 L 23.976,-32.976 c -4.824,-3.528 -11.448,-2.664 -14.76,1.872 L -2.808,-14.616 C -6.048,-10.08 -4.824,-3.456 0,0"
               style="fill:#ffffff;fill-opacity:1;fill-rule:evenodd;stroke:none"
               id="path217"
               inkscape:connector-curvature="0" />
          </g>
          <g
             id="g223"
             transform="translate(423.1396,388.6519)"
             style="fill:#ffffff">
            <path
               d="m 0,0 29.592,21.528 c 4.825,3.456 11.52,2.664 14.761,-1.872 L 56.376,3.096 C 59.688,-1.44 58.393,-7.992 53.568,-11.52 L 23.977,-33.048 c -4.825,-3.528 -11.449,-2.664 -14.76,1.872 L -2.736,-14.688 C -6.048,-10.08 -4.751,-3.528 0,0"
               style="fill:#ffffff;fill-opacity:1;fill-rule:evenodd;stroke:none"
               id="path221"
               inkscape:connector-curvature="0" />
          </g>
          <g
             id="g227"
             transform="translate(395.7798,426.3799)"
             style="fill:#ffffff">
            <path
               d="m 0,0 29.52,21.528 c 4.824,3.528 11.52,2.664 14.761,-1.872 L 56.304,3.096 C 59.617,-1.44 58.392,-7.992 53.568,-11.52 L 23.976,-33.048 c -4.824,-3.456 -11.448,-2.664 -14.76,1.872 l -12.024,16.56 C -6.12,-10.08 -4.824,-3.528 0,0"
               style="fill:#ffffff;fill-opacity:1;fill-rule:evenodd;stroke:none"
               id="path225"
               inkscape:connector-curvature="0" />
          </g>
        </g>
      </g>
    </g>
    <text
       id="text237"
       y="185.2068"
       x="66.090111"
       style="font-style:normal;font-weight:normal;font-size:10.58333302px;line-height:1.25;font-family:sans-serif;letter-spacing:0px;word-spacing:0px;fill:#000000;fill-opacity:1;stroke:none;stroke-width:0.26458332"
       xml:space="preserve"><tspan
         style="stroke-width:0.26458332"
         y="185.2068"
         x="66.090111"
         id="tspan235"
         sodipodi:role="line">Besprechungsraum 3</tspan></text>
    <path
       inkscape:connector-curvature="0"
       id="path239"
       d="M 23.443546,194.45983 H 186.55552"
       style="fill:none;stroke:#000000;stroke-width:0.2765789px;stroke-linecap:butt;stroke-linejoin:miter;stroke-opacity:1" />
    <path
       inkscape:connector-curvature="0"
       id="path241"
       d="m 60.003718,167.5848 v 26.81269"
       style="fill:none;stroke:#000000;stroke-width:0.28473926px;stroke-linecap:butt;stroke-linejoin:miter;stroke-opacity:1" />
    <path
       style="fill:none;stroke:#000000;stroke-width:0.2765789px;stroke-linecap:butt;stroke-linejoin:miter;stroke-opacity:1"
       d="M 23.443546,230.87783 H 186.55552"
       id="path243"
       inkscape:connector-curvature="0" />
    <text
       id="text253"
       y="244.16534"
       x="28.788265"
       style="font-style:normal;font-weight:normal;font-size:10.58333302px;line-height:1.25;font-family:sans-serif;letter-spacing:0px;word-spacing:0px;fill:#000000;fill-opacity:1;stroke:none;stroke-width:0.26458332"
       xml:space="preserve"><tspan
         id="tspan251"
         style="font-size:5.64444447px;stroke-width:0.26458332"
         y="244.16534"
         x="28.788265"
         sodipodi:role="line">13:15</tspan></text>
    <text
       id="text257"
       y="247.18982"
       x="53.289894"
       style="font-style:normal;font-weight:normal;font-size:10.58333302px;line-height:1.25;font-family:sans-serif;letter-spacing:0px;word-spacing:0px;fill:#000000;fill-opacity:1;stroke:none;stroke-width:0.26458332"
       xml:space="preserve"><tspan
         style="stroke-width:0.26458332"
         y="247.18982"
         x="53.289894"
         id="tspan255"
         sodipodi:role="line">OPS - Jour Fix</tspan></text>
    <text
       id="text261"
       y="256.53223"
       x="53.766552"
       style="font-style:normal;font-weight:normal;font-size:10.58333302px;line-height:1.25;font-family:sans-serif;letter-spacing:0px;word-spacing:0px;fill:#000000;fill-opacity:1;stroke:none;stroke-width:0.26458332"
       xml:space="preserve"><tspan
         style="font-size:5.64444447px;stroke-width:0.26458332"
         y="256.53223"
         x="53.766552"
         id="tspan259"
         sodipodi:role="line">Johann Schütz</tspan></text>
    <text
       id="text265"
       y="256.7229"
       x="28.789892"
       style="font-style:normal;font-weight:normal;font-size:10.58333302px;line-height:1.25;font-family:sans-serif;letter-spacing:0px;word-spacing:0px;fill:#000000;fill-opacity:1;stroke:none;stroke-width:0.26458332"
       xml:space="preserve"><tspan
         style="font-size:5.64444447px;stroke-width:0.26458332"
         y="256.7229"
         x="28.789892"
         id="tspan263"
         sodipodi:role="line">14:30</tspan></text>
    <rect
       style="fill:#000000;stroke:#000000;stroke-width:0.26458332"
       id="rect301"
       width="163.11197"
       height="36.417999"
       x="23.443546"
       y="194.45984" />
    <text
       xml:space="preserve"
       style="font-style:normal;font-weight:normal;font-size:10.58333302px;line-height:1.25;font-family:sans-serif;letter-spacing:0px;word-spacing:0px;fill:#ffffff;fill-opacity:1;stroke:none;stroke-width:0.26458332"
       x="28.788265"
       y="208.94547"
       id="text285"><tspan
         sodipodi:role="line"
         x="28.788265"
         y="208.94547"
         style="font-size:5.64444447px;fill:#ffffff;stroke-width:0.26458332"
         id="tspan283">bis</tspan></text>
    <text
       xml:space="preserve"
       style="font-style:normal;font-weight:normal;font-size:10.58333302px;line-height:1.25;font-family:sans-serif;letter-spacing:0px;word-spacing:0px;fill:#ffffff;fill-opacity:1;stroke:none;stroke-width:0.26458332;"
       x="53.289894"
       y="211.96994"
       id="text289"><tspan
         sodipodi:role="line"
         id="tspan287"
         x="53.289894"
         y="211.96994"
         style="stroke-width:0.26458332;fill:#ffffff;">JIRA Insight - CMDB</tspan></text>
    <text
       xml:space="preserve"
       style="font-style:normal;font-weight:normal;font-size:10.58333302px;line-height:1.25;font-family:sans-serif;letter-spacing:0px;word-spacing:0px;fill:#ffffff;fill-opacity:1;stroke:none;stroke-width:0.26458332;"
       x="52.622581"
       y="221.50302"
       id="text293"><tspan
         sodipodi:role="line"
         id="tspan291"
         x="52.622581"
         y="221.50302"
         style="font-size:5.64444447px;stroke-width:0.26458332;fill:#ffffff;">Andreas Werschlan</tspan></text>
    <text
       xml:space="preserve"
       style="font-style:normal;font-weight:normal;font-size:10.58333302px;line-height:1.25;font-family:sans-serif;letter-spacing:0px;word-spacing:0px;fill:#ffffff;fill-opacity:1;stroke:none;stroke-width:0.26458332;"
       x="28.789892"
       y="221.50302"
       id="text297"><tspan
         sodipodi:role="line"
         id="tspan295"
         x="28.789892"
         y="221.50302"
         style="font-size:5.64444447px;stroke-width:0.26458332;fill:#ffffff;">12:00</tspan></text>
  </g>
</svg>
