<svg id="Ebene_1" data-name="Ebene 1" xmlns="http://www.w3.org/2000/svg" viewBox="0 0 640 384"><defs><style>.cls-1,.cls-11,.cls-14,.cls-2,.cls-8,.cls-9{isolation:isolate;}.cls-10,.cls-11,.cls-14,.cls-2,.cls-6,.cls-7,.cls-8{font-size:16px;}.cls-11,.cls-2,.cls-5,.cls-7,.cls-8{font-family:OpenSans-Bold, Open Sans;}.cls-12,.cls-2,.cls-5,.cls-7,.cls-8{font-weight:700;}.cls-3,.cls-8{fill:#fff;}.cls-4,.cls-5{font-size:21px;}.cls-4,.cls-6,.cls-9{font-family:OpenSans-Regular, Open Sans;}.cls-9{font-size:40px;}.cls-13,.cls-14{font-family:OpenSans-Italic, Open Sans;font-style:italic;}</style></defs><title>Tuerschild_flaechen</title><polygon points="640 0 380.5 0 380 0 379.5 0 379.5 384 380.5 384 380.5 36.51 640 36.51 640 0"/><path d="M64.8,224.17h0a1.87,1.87,0,0,0-1.68.76,3.46,3.46,0,0,0-.4,1.91,3.31,3.31,0,0,0,.51,2,1.87,1.87,0,0,0,1.57.65h0a1.86,1.86,0,0,0,1.56-.65,3.37,3.37,0,0,0,.5-2,3.55,3.55,0,0,0-.41-1.9A1.81,1.81,0,0,0,64.8,224.17Z"/><path d="M349.29,174.94H26a4,4,0,0,0-4,4v67.15a4,4,0,0,0,4,4H349.29a4,4,0,0,0,4-4V178.94A4,4,0,0,0,349.29,174.94ZM82.77,200.84l1.2,1.65a1.07,1.07,0,0,1-.28,1.47l-3,2.15a1.08,1.08,0,0,1-1.49-.19L78,204.27a1.05,1.05,0,0,1,.28-1.46l3-2.16A1.06,1.06,0,0,1,82.77,200.84ZM80,197.06l1.2,1.65a1.05,1.05,0,0,1-.28,1.46l-3,2.16a1.06,1.06,0,0,1-1.48-.19l-1.2-1.65a1.05,1.05,0,0,1,.27-1.46l3-2.16A1.07,1.07,0,0,1,80,197.06ZM75.75,204l-3,2.16a1.05,1.05,0,0,1-1.47-.19l-1.2-1.65a1.07,1.07,0,0,1,.27-1.47l3-2.16a1.06,1.06,0,0,1,1.47.19L76,202.49A1.06,1.06,0,0,1,75.75,204Zm-2.92-8.71,3-2.15a1,1,0,0,1,1.47.19l1.21,1.65a1.07,1.07,0,0,1-.28,1.47l-3,2.15a1,1,0,0,1-1.47-.18l-1.21-1.66A1.07,1.07,0,0,1,72.83,195.24Zm-.75,1.81,1.2,1.66a1.05,1.05,0,0,1-.27,1.46l-3,2.16a1,1,0,0,1-1.47-.19l-1.21-1.66a1.06,1.06,0,0,1,.28-1.46l3-2.15A1.05,1.05,0,0,1,72.08,197.05ZM57,208a1.06,1.06,0,0,1,.27-1.47l3-2.16a1.07,1.07,0,0,1,1.48.2l1.19,1.65a1,1,0,0,1-.27,1.46l-3,2.16a1.07,1.07,0,0,1-1.48-.19Zm.44,3.46-3,2.15a1.07,1.07,0,0,1-1.48-.19l-1.2-1.65a1.07,1.07,0,0,1,.27-1.47l3-2.15a1.05,1.05,0,0,1,1.48.19L57.7,210A1.06,1.06,0,0,1,57.42,211.5Zm5-8.7,3-2.16a1.07,1.07,0,0,1,1.48.19l1.2,1.65a1.05,1.05,0,0,1-.27,1.46l-3,2.16a1.05,1.05,0,0,1-1.48-.19l-1.2-1.65A1,1,0,0,1,62.45,202.8ZM60,210.35l3-2.15a1.05,1.05,0,0,1,1.48.18l1.2,1.65a1.06,1.06,0,0,1-.27,1.47l-3,2.15a1.06,1.06,0,0,1-1.48-.19l-1.2-1.64A1.06,1.06,0,0,1,60,210.35Zm2.74,3.77,3-2.15a1.08,1.08,0,0,1,1.49.18l1.2,1.65a1.06,1.06,0,0,1-.28,1.47l-3,2.16a1,1,0,0,1-1.47-.19l-1.21-1.66A1.06,1.06,0,0,1,62.74,214.12Zm2.16-18.88,3-2.15a1.06,1.06,0,0,1,1.48.19l1.19,1.65a1.06,1.06,0,0,1-.27,1.47l-3,2.15a1.06,1.06,0,0,1-1.48-.19l-1.2-1.65A1.06,1.06,0,0,1,64.9,195.24ZM59.7,199l3-2.14a1.05,1.05,0,0,1,1.48.18l1.19,1.65a1.06,1.06,0,0,1-.27,1.47l-3,2.15a1.06,1.06,0,0,1-1.48-.18l-1.2-1.66A1.08,1.08,0,0,1,59.7,199Zm-5.2,3.78,3-2.15a1.06,1.06,0,0,1,1.48.18l1.2,1.66a1,1,0,0,1-.28,1.46l-3,2.16a1.05,1.05,0,0,1-1.48-.19l-1.2-1.66A1.05,1.05,0,0,1,54.5,202.79Zm-5.19,3.78,3-2.16a1.05,1.05,0,0,1,1.47.19L55,206.25a1.07,1.07,0,0,1-.28,1.47l-3,2.16a1.07,1.07,0,0,1-1.48-.19L49,208A1,1,0,0,1,49.31,206.57Zm-5.19,3.77,3-2.15a1.06,1.06,0,0,1,1.48.19l1.2,1.65a1.06,1.06,0,0,1-.28,1.46l-3,2.15a1.05,1.05,0,0,1-1.48-.19l-1.2-1.64A1.06,1.06,0,0,1,44.12,210.34Zm-5.2,3.77,3-2.16a1.07,1.07,0,0,1,1.48.19l1.2,1.66a1,1,0,0,1-.27,1.46l-3,2.16a1.07,1.07,0,0,1-1.48-.19l-1.2-1.65A1.07,1.07,0,0,1,38.92,214.11Zm5.28,16.7H42l-4.34-10.17h2.46l3,7.65,3.08-7.65H48.7Zm7.06,0H49.55v-7.93h1.71Zm-2-13.39a1,1,0,0,1-1.47-.19l-1.21-1.65a1.06,1.06,0,0,1,.28-1.47l3-2.15a1.05,1.05,0,0,1,1.47.19l1.21,1.65a1.07,1.07,0,0,1-.28,1.47Zm10.43,12.35a1.92,1.92,0,0,1-1.41,1,9.44,9.44,0,0,1-1.38.07h-4V229.4h3.66a2.7,2.7,0,0,0,1.17-.17.83.83,0,0,0,.43-.75.9.9,0,0,0-.5-.84,2,2,0,0,0-.9-.16H55.25a3.1,3.1,0,0,1-2-.49,2.17,2.17,0,0,1-.59-.77,2.59,2.59,0,0,1-.21-1,2.65,2.65,0,0,1,.49-1.53,2.12,2.12,0,0,1,1.55-.78c.24,0,.59,0,1.07,0h4v1.41H56a6.74,6.74,0,0,0-1.07.07.72.72,0,0,0-.54.81.76.76,0,0,0,.45.77,2.75,2.75,0,0,0,1,.13h1.29a5,5,0,0,1,1.48.17,1.83,1.83,0,0,1,1.16,1,2.83,2.83,0,0,1,.26,1.23A2.5,2.5,0,0,1,59.69,229.77Zm.48-14.5-3,2.15a1.05,1.05,0,0,1-1.48-.18l-1.19-1.66a1.06,1.06,0,0,1,.27-1.47l3-2.15a1.07,1.07,0,0,1,1.48.19l1.2,1.65A1.08,1.08,0,0,1,60.17,215.27Zm8.17,13.79a2.93,2.93,0,0,1-1.59,1.49,5,5,0,0,1-1.84.31h-.12a5.19,5.19,0,0,1-2.23-.5,2.83,2.83,0,0,1-1.29-1.31,4.86,4.86,0,0,1-.44-2.16A4,4,0,0,1,62,223.66a4.33,4.33,0,0,1,2.82-.83,5.21,5.21,0,0,1,2.12.41,2.79,2.79,0,0,1,1.5,1.62,5.78,5.78,0,0,1,.34,2.1A5,5,0,0,1,68.34,229.06Zm9.74-6.61H74.67v8.36H72.49v-8.36H69.22v-1.81h8.86ZM85,224.29H82.77a4.75,4.75,0,0,0-1.27.12,1.26,1.26,0,0,0-.67.47,1.42,1.42,0,0,0-.23.46,5.28,5.28,0,0,0-.12.82H85v1.41H80.48a1.92,1.92,0,0,0,.61,1.43,2.89,2.89,0,0,0,1.75.4H85v1.41H82.77a9.57,9.57,0,0,1-1.6-.11,2.74,2.74,0,0,1-1.72-.93,4.48,4.48,0,0,1-.91-3,4.1,4.1,0,0,1,1.29-3.23,2.5,2.5,0,0,1,.94-.54,4.75,4.75,0,0,1,1.34-.16H85Zm7.45,0H89.92a2.11,2.11,0,0,0-1.68.61,2.75,2.75,0,0,0-.44,1.81,3,3,0,0,0,.68,2.31,2.45,2.45,0,0,0,1.5.38h2.46v1.41h-2.8a7.58,7.58,0,0,1-1.22-.07,2.81,2.81,0,0,1-2.1-1.64,5.42,5.42,0,0,1-.41-2.23,4.87,4.87,0,0,1,.63-2.61,2.73,2.73,0,0,1,1.21-1,5,5,0,0,1,2-.33h2.72Zm7.62,6.52h-1.7v-3.28h-3.1v3.28h-1.7v-7.93h1.7v3.24h3.1v-3.24h1.7Zm252.23,15.28a3,3,0,0,1-3,3H118.17V175.94H349.29a3,3,0,0,1,3,3Z"/><g id="text67" class="cls-1"><text class="cls-2" transform="translate(136.9 219.45)">BESPRECHUNGSRAUM 3</text></g><path d="M335.91,136.59a3.74,3.74,0,0,0-3.71,3.26H43a3.76,3.76,0,1,0,0,1H332.2a3.75,3.75,0,1,0,3.71-4.26Z"/><path d="M606.24,246.33a3.75,3.75,0,0,0-3.71,3.26H429.15a3.76,3.76,0,1,0,0,1H602.53a3.75,3.75,0,1,0,3.71-4.26Z"/><path d="M606.24,356.07a3.75,3.75,0,0,0-3.71,3.26H429.15a3.76,3.76,0,1,0,0,1H602.53a3.75,3.75,0,1,0,3.71-4.26Z"/><path d="M606.24,136.59a3.75,3.75,0,0,0-3.71,3.26H429.15a3.76,3.76,0,1,0,0,1H602.53a3.75,3.75,0,1,0,3.71-4.26Z"/><path d="M189.42,126a23.52,23.52,0,1,1,23.51-23.51A23.54,23.54,0,0,1,189.42,126Zm0-46a22.52,22.52,0,1,0,22.51,22.52A22.54,22.54,0,0,0,189.42,79.92Z"/><polygon points="189.6 110.86 180.09 105.11 180.6 104.26 189.24 109.48 198.06 94.17 198.92 94.67 189.6 110.86"/><g id="g18"><g id="g20"><path id="path22" class="cls-3" d="M48.7,220.64l-4.5,10.17H42l-4.34-10.17h2.46l3,7.65,3.08-7.65Z"/></g><path id="path24" class="cls-3" d="M49.55,222.88h1.71v7.93H49.55Z"/><g id="g26"><g id="g28"><g id="g34"><path id="path36" class="cls-3" d="M52.88,230.81V229.4h3.66a2.7,2.7,0,0,0,1.17-.17.83.83,0,0,0,.43-.75.9.9,0,0,0-.5-.84,2,2,0,0,0-.9-.16H55.25a3.1,3.1,0,0,1-2-.49,2.17,2.17,0,0,1-.59-.77,2.59,2.59,0,0,1-.21-1,2.65,2.65,0,0,1,.49-1.53,2.08,2.08,0,0,1,1.55-.77,9.55,9.55,0,0,1,1.07,0h4v1.41H56a6.74,6.74,0,0,0-1.07.07.72.72,0,0,0-.54.81.76.76,0,0,0,.45.77,2.75,2.75,0,0,0,1,.13h1.29a5,5,0,0,1,1.48.17,1.83,1.83,0,0,1,1.16,1,2.83,2.83,0,0,1,.26,1.23,2.5,2.5,0,0,1-.34,1.3,1.92,1.92,0,0,1-1.41,1,9.44,9.44,0,0,1-1.38.07Z"/></g><g id="g38"><path id="path40" class="cls-3" d="M64.79,222.83h0v1.34a1.87,1.87,0,0,0-1.68.76,3.46,3.46,0,0,0-.4,1.91,3.31,3.31,0,0,0,.51,2,1.87,1.87,0,0,0,1.57.65v1.33a5.19,5.19,0,0,1-2.23-.5,2.83,2.83,0,0,1-1.29-1.31,4.86,4.86,0,0,1-.44-2.16A4,4,0,0,1,62,223.66a4.33,4.33,0,0,1,2.82-.83m0,0a5.21,5.21,0,0,1,2.12.41,2.79,2.79,0,0,1,1.5,1.62,5.78,5.78,0,0,1,.34,2.1,5,5,0,0,1-.41,2.1,2.93,2.93,0,0,1-1.59,1.49,5,5,0,0,1-1.84.31h-.12v-1.33h0a1.86,1.86,0,0,0,1.56-.65,3.37,3.37,0,0,0,.5-2,3.55,3.55,0,0,0-.41-1.9,1.81,1.81,0,0,0-1.66-.78h0Z"/></g><g id="g42"><path id="path44" class="cls-3" d="M72.49,222.45H69.22v-1.81h8.86v1.81H74.67v8.36H72.49Z"/></g><g id="g46"><path id="path48" class="cls-3" d="M85,222.88v1.41H82.77a5.21,5.21,0,0,0-1.27.12,1.26,1.26,0,0,0-.67.47,1.42,1.42,0,0,0-.23.46,5.28,5.28,0,0,0-.12.82H85v1.41H80.48a1.92,1.92,0,0,0,.61,1.43,2.89,2.89,0,0,0,1.75.4H85v1.41H82.77a9.57,9.57,0,0,1-1.6-.11,2.74,2.74,0,0,1-1.72-.93,4.48,4.48,0,0,1-.91-3,4.1,4.1,0,0,1,1.29-3.23,2.5,2.5,0,0,1,.94-.54,4.75,4.75,0,0,1,1.34-.16Z"/></g><g id="g50"><path id="path52" class="cls-3" d="M92.44,229.4v1.41h-2.8a7.58,7.58,0,0,1-1.22-.07,2.81,2.81,0,0,1-2.1-1.64,5.42,5.42,0,0,1-.41-2.23,4.87,4.87,0,0,1,.63-2.61,2.73,2.73,0,0,1,1.21-1,5,5,0,0,1,2-.33h2.72v1.41H89.92a2.11,2.11,0,0,0-1.68.61,2.75,2.75,0,0,0-.44,1.81,3,3,0,0,0,.68,2.31,2.45,2.45,0,0,0,1.5.38Z"/></g><g id="g54"><path id="path56" class="cls-3" d="M100.06,222.88v7.93h-1.7v-3.28h-3.1v3.28h-1.7v-7.93h1.7v3.24h3.1v-3.24Z"/></g><g id="g58"><path id="path60" class="cls-3" d="M62.74,214.12l3-2.15a1.08,1.08,0,0,1,1.49.18l1.2,1.65a1.06,1.06,0,0,1-.28,1.47l-3,2.16a1,1,0,0,1-1.47-.19l-1.21-1.66a1.06,1.06,0,0,1,.28-1.46"/></g><g id="g62"><path id="path64" class="cls-3" d="M78.32,202.81l3-2.16a1.06,1.06,0,0,1,1.48.19l1.2,1.65a1.07,1.07,0,0,1-.28,1.47l-3,2.15a1.08,1.08,0,0,1-1.49-.19L78,204.27a1.05,1.05,0,0,1,.28-1.46"/></g><g id="g66"><path id="path68" class="cls-3" d="M60,210.35l3-2.15a1.05,1.05,0,0,1,1.48.18l1.2,1.65a1.06,1.06,0,0,1-.27,1.47l-3,2.15a1.06,1.06,0,0,1-1.48-.19l-1.2-1.64a1.06,1.06,0,0,1,.28-1.47"/></g><g id="g70"><path id="path72" class="cls-3" d="M57.25,206.57l3-2.16a1.07,1.07,0,0,1,1.48.2l1.19,1.65a1,1,0,0,1-.27,1.46l-3,2.16a1.07,1.07,0,0,1-1.48-.19L57,208a1.06,1.06,0,0,1,.27-1.47"/></g><g id="g74"><path id="path76" class="cls-3" d="M49.31,206.57l3-2.16a1.05,1.05,0,0,1,1.47.19L55,206.25a1.07,1.07,0,0,1-.28,1.47l-3,2.16a1.07,1.07,0,0,1-1.48-.19L49,208a1,1,0,0,1,.28-1.46"/></g><g id="g78"><path id="path80" class="cls-3" d="M44.12,210.34l3-2.15a1.06,1.06,0,0,1,1.48.19l1.2,1.65a1.06,1.06,0,0,1-.28,1.46l-3,2.15a1.05,1.05,0,0,1-1.48-.19l-1.2-1.64a1.06,1.06,0,0,1,.28-1.47"/></g><g id="g82"><path id="path84" class="cls-3" d="M38.92,214.11l3-2.16a1.07,1.07,0,0,1,1.48.19l1.2,1.66a1,1,0,0,1-.27,1.46l-3,2.16a1.07,1.07,0,0,1-1.48-.19l-1.2-1.65a1.07,1.07,0,0,1,.28-1.47"/></g><g id="g86"><path id="path88" class="cls-3" d="M46.86,214.11l3-2.15a1.05,1.05,0,0,1,1.47.19l1.21,1.65a1.07,1.07,0,0,1-.28,1.47l-3,2.15a1,1,0,0,1-1.47-.19l-1.21-1.65a1.06,1.06,0,0,1,.28-1.47"/></g><g id="g90"><path id="path92" class="cls-3" d="M52.05,210.34l3-2.15a1.05,1.05,0,0,1,1.48.19L57.7,210a1.06,1.06,0,0,1-.28,1.47l-3,2.15a1.07,1.07,0,0,1-1.48-.19l-1.2-1.65a1.07,1.07,0,0,1,.27-1.47"/></g><g id="g94"><path id="path96" class="cls-3" d="M54.8,214.11l3-2.15a1.07,1.07,0,0,1,1.48.19l1.2,1.65a1.08,1.08,0,0,1-.28,1.47l-3,2.15a1.05,1.05,0,0,1-1.48-.18l-1.19-1.66a1.06,1.06,0,0,1,.27-1.47"/></g><g id="g98"><path id="path100" class="cls-3" d="M75.57,199l3-2.16a1.07,1.07,0,0,1,1.48.19l1.2,1.65a1,1,0,0,1-.28,1.46l-3,2.16a1.06,1.06,0,0,1-1.48-.19l-1.2-1.65a1.05,1.05,0,0,1,.27-1.46"/></g><g id="g102"><path id="path104" class="cls-3" d="M72.83,195.24l3-2.15a1,1,0,0,1,1.47.19l1.21,1.65a1.07,1.07,0,0,1-.28,1.47l-3,2.15a1,1,0,0,1-1.47-.18l-1.21-1.66a1.07,1.07,0,0,1,.28-1.47"/></g><g id="g106"><path id="path108" class="cls-3" d="M64.9,195.24l3-2.15a1.06,1.06,0,0,1,1.48.19l1.19,1.65a1.06,1.06,0,0,1-.27,1.47l-3,2.15a1.06,1.06,0,0,1-1.48-.19l-1.2-1.65a1.06,1.06,0,0,1,.28-1.47"/></g><g id="g110"><path id="path112" class="cls-3" d="M59.7,199l3-2.14a1.05,1.05,0,0,1,1.48.18l1.19,1.65a1.06,1.06,0,0,1-.27,1.47l-3,2.15a1.06,1.06,0,0,1-1.48-.18l-1.2-1.66A1.08,1.08,0,0,1,59.7,199"/></g><g id="g114"><path id="path116" class="cls-3" d="M54.5,202.79l3-2.15a1.06,1.06,0,0,1,1.48.18l1.2,1.66a1,1,0,0,1-.28,1.46l-3,2.16a1.05,1.05,0,0,1-1.48-.19l-1.2-1.66a1.05,1.05,0,0,1,.27-1.46"/></g><g id="g118"><path id="path120" class="cls-3" d="M62.45,202.8l3-2.16a1.07,1.07,0,0,1,1.48.19l1.2,1.65a1.05,1.05,0,0,1-.27,1.46l-3,2.16a1.05,1.05,0,0,1-1.48-.19l-1.2-1.65a1,1,0,0,1,.28-1.46"/></g><g id="g122"><path id="path124" class="cls-3" d="M70.38,202.8l3-2.16a1.06,1.06,0,0,1,1.47.19L76,202.49a1.06,1.06,0,0,1-.28,1.46l-3,2.16a1.05,1.05,0,0,1-1.47-.19l-1.2-1.65a1.07,1.07,0,0,1,.27-1.47"/></g><g id="g126"><path id="path128" class="cls-3" d="M67.64,199l3-2.15a1.05,1.05,0,0,1,1.48.18l1.2,1.66a1.05,1.05,0,0,1-.27,1.46l-3,2.16a1,1,0,0,1-1.47-.19l-1.21-1.66a1.06,1.06,0,0,1,.28-1.46"/></g></g></g></g><text class="cls-4" transform="translate(37.12 326.1)">30</text><text class="cls-5" transform="translate(107.01 326.1)">31</text><text class="cls-4" transform="translate(176.87 326.1)">01</text><text class="cls-4" transform="translate(246.74 326.1)">02</text><text class="cls-4" transform="translate(316.62 326.1)">03</text><text class="cls-6" transform="translate(35.55 345.67)">MO</text><text class="cls-6" transform="translate(37.67 280.99)">Monat</text><text class="cls-4" transform="translate(156.72 280.99)">KW 00</text><text class="cls-6" transform="translate(291.19 280.99)">Monat</text><text class="cls-7" transform="translate(110.43 345.67)">DI</text><text class="cls-6" transform="translate(179.55 345.67)">MI</text><text class="cls-6" transform="translate(246.94 345.67)">DO</text><text class="cls-6" transform="translate(319.93 345.67)">FR</text><text class="cls-8" transform="translate(464.59 25.51)">Demnächst</text><text class="cls-9" transform="translate(149.49 61.51)">FREI</text><text class="cls-4" transform="translate(21.95 106.62)">00:00<tspan class="cls-10"><tspan x="0" y="19.2">00.00.2018</tspan></tspan></text><text class="cls-4" transform="translate(299.67 106.62)">00:00<tspan class="cls-10"><tspan x="-28.08" y="19.2">00.00.2018</tspan></tspan></text><text class="cls-11" transform="translate(401.68 171.25)"><tspan class="cls-12">Besprechungstitel</tspan><tspan class="cls-13"><tspan x="0" y="19.2">Vorname Nachname</tspan></tspan></text><text class="cls-4" transform="translate(411.68 216.36)">00:00<tspan class="cls-10"><tspan x="0" y="19.2">00.00.2018</tspan></tspan></text><text class="cls-4" transform="translate(566.38 216.36)">00:00<tspan class="cls-10"><tspan x="-28.08" y="19.2">00.00.2018</tspan></tspan></text><text class="cls-11" transform="translate(401.68 280.99)"><tspan class="cls-12">Besprechungstitel</tspan><tspan class="cls-13"><tspan x="0" y="19.2">Vorname Nachname</tspan></tspan></text><text class="cls-4" transform="translate(411.68 326.1)">00:00<tspan class="cls-10"><tspan x="0" y="19.2">00.00.2018</tspan></tspan></text><text class="cls-4" transform="translate(566.38 326.1)">00:00<tspan class="cls-10"><tspan x="-28.08" y="19.2">00.00.2018</tspan></tspan></text><circle cx="119" cy="359.83" r="3.75"/><text class="cls-11" transform="translate(401.68 61.51)"><tspan class="cls-12">Besprechungstitel</tspan><tspan class="cls-13"><tspan x="0" y="19.2">Vorname Nachname</tspan></tspan></text><text class="cls-4" transform="translate(411.68 106.62)">00:00<tspan class="cls-10"><tspan x="0" y="19.2">00.00.2018</tspan></tspan></text><text class="cls-4" transform="translate(566.38 106.62)">00:00<tspan class="cls-10"><tspan x="-28.08" y="19.2">00.00.2018</tspan></tspan></text><text class="cls-14" transform="translate(21.95 80.71)">von</text><text class="cls-14" transform="translate(333.14 80.71)">bis</text></svg>