<?xml version="1.0" encoding="UTF-8" standalone="no"?>
<svg
   xmlns:dc="http://purl.org/dc/elements/1.1/"
   xmlns:cc="http://creativecommons.org/ns#"
   xmlns:rdf="http://www.w3.org/1999/02/22-rdf-syntax-ns#"
   xmlns:svg="http://www.w3.org/2000/svg"
   xmlns="http://www.w3.org/2000/svg"
   xmlns:sodipodi="http://sodipodi.sourceforge.net/DTD/sodipodi-0.dtd"
   xmlns:inkscape="http://www.inkscape.org/namespaces/inkscape"
   id="Ebene_1"
   data-name="Ebene 1"
   viewBox="0 0 640 384"
   version="1.1"
   sodipodi:docname="Tuerschild_Besprechung.svg"
   inkscape:version="0.92.2 (5c3e80d, 2017-08-06)">
  <metadata
     id="metadata146">
    <rdf:RDF>
      <cc:Work
         rdf:about="">
        <dc:format>image/svg+xml</dc:format>
        <dc:type
           rdf:resource="http://purl.org/dc/dcmitype/StillImage" />
      </cc:Work>
    </rdf:RDF>
  </metadata>
  <sodipodi:namedview
     pagecolor="#ffffff"
     bordercolor="#666666"
     borderopacity="1"
     objecttolerance="10"
     gridtolerance="10"
     guidetolerance="10"
     inkscape:pageopacity="0"
     inkscape:pageshadow="2"
     inkscape:window-width="1896"
     inkscape:window-height="1095"
     id="namedview144"
     showgrid="false"
     inkscape:zoom="3.4766083"
     inkscape:cx="269.59623"
     inkscape:cy="161.18585"
     inkscape:window-x="1771"
     inkscape:window-y="467"
     inkscape:window-maximized="0"
     inkscape:current-layer="Ebene_1" />
  <defs
     id="defs4">
    <style
       id="style2">.cls-1,.cls-12,.cls-13,.cls-2,.cls-7,.cls-8{isolation:isolate;}.cls-11,.cls-12,.cls-13,.cls-2,.cls-5,.cls-6,.cls-7{font-size:16px;}.cls-12,.cls-2,.cls-4,.cls-6,.cls-7,.cls-8{font-family:OpenSans-Bold, Open Sans;}.cls-2,.cls-4,.cls-6,.cls-7,.cls-9{font-weight:700;}.cls-3,.cls-4,.cls-8{font-size:21px;}.cls-3,.cls-5{font-family:OpenSans-Regular, Open Sans;}.cls-7{fill:#fff;}.cls-10,.cls-13{font-family:OpenSans-Italic, Open Sans;font-style:italic;}</style>
  </defs>
  <title
     id="title6">Tuerschild_flaechen</title>
  <polygon
     points="640 0 380.5 0 380 0 379.5 0 379.5 384 380.5 384 380.5 36.51 640 36.51 640 0"
     id="polygon8" />
  <path
     d="M64.8,224.17h0a1.87,1.87,0,0,0-1.68.76,3.46,3.46,0,0,0-.4,1.91,3.31,3.31,0,0,0,.51,2,1.87,1.87,0,0,0,1.57.65h0a1.86,1.86,0,0,0,1.56-.65,3.37,3.37,0,0,0,.5-2,3.55,3.55,0,0,0-.41-1.9A1.81,1.81,0,0,0,64.8,224.17Z"
     id="path10" />
  <path
     d="M349.29,174.94H26a4,4,0,0,0-4,4v67.15a4,4,0,0,0,4,4H349.29a4,4,0,0,0,4-4V178.94A4,4,0,0,0,349.29,174.94ZM82.77,200.84l1.2,1.65a1.07,1.07,0,0,1-.28,1.47l-3,2.15a1.08,1.08,0,0,1-1.49-.19L78,204.27a1.05,1.05,0,0,1,.28-1.46l3-2.16A1.06,1.06,0,0,1,82.77,200.84ZM80,197.06l1.2,1.65a1.05,1.05,0,0,1-.28,1.46l-3,2.16a1.06,1.06,0,0,1-1.48-.19l-1.2-1.65a1.05,1.05,0,0,1,.27-1.46l3-2.16A1.07,1.07,0,0,1,80,197.06ZM75.75,204l-3,2.16a1.05,1.05,0,0,1-1.47-.19l-1.2-1.65a1.07,1.07,0,0,1,.27-1.47l3-2.16a1.06,1.06,0,0,1,1.47.19L76,202.49A1.06,1.06,0,0,1,75.75,204Zm-2.92-8.71,3-2.15a1,1,0,0,1,1.47.19l1.21,1.65a1.07,1.07,0,0,1-.28,1.47l-3,2.15a1,1,0,0,1-1.47-.18l-1.21-1.66A1.07,1.07,0,0,1,72.83,195.24Zm-.75,1.81,1.2,1.66a1.05,1.05,0,0,1-.27,1.46l-3,2.16a1,1,0,0,1-1.47-.19l-1.21-1.66a1.06,1.06,0,0,1,.28-1.46l3-2.15A1.05,1.05,0,0,1,72.08,197.05ZM57,208a1.06,1.06,0,0,1,.27-1.47l3-2.16a1.07,1.07,0,0,1,1.48.2l1.19,1.65a1,1,0,0,1-.27,1.46l-3,2.16a1.07,1.07,0,0,1-1.48-.19Zm.44,3.46-3,2.15a1.07,1.07,0,0,1-1.48-.19l-1.2-1.65a1.07,1.07,0,0,1,.27-1.47l3-2.15a1.05,1.05,0,0,1,1.48.19L57.7,210A1.06,1.06,0,0,1,57.42,211.5Zm5-8.7,3-2.16a1.07,1.07,0,0,1,1.48.19l1.2,1.65a1.05,1.05,0,0,1-.27,1.46l-3,2.16a1.05,1.05,0,0,1-1.48-.19l-1.2-1.65A1,1,0,0,1,62.45,202.8ZM60,210.35l3-2.15a1.05,1.05,0,0,1,1.48.18l1.2,1.65a1.06,1.06,0,0,1-.27,1.47l-3,2.15a1.06,1.06,0,0,1-1.48-.19l-1.2-1.64A1.06,1.06,0,0,1,60,210.35Zm2.74,3.77,3-2.15a1.08,1.08,0,0,1,1.49.18l1.2,1.65a1.06,1.06,0,0,1-.28,1.47l-3,2.16a1,1,0,0,1-1.47-.19l-1.21-1.66A1.06,1.06,0,0,1,62.74,214.12Zm2.16-18.88,3-2.15a1.06,1.06,0,0,1,1.48.19l1.19,1.65a1.06,1.06,0,0,1-.27,1.47l-3,2.15a1.06,1.06,0,0,1-1.48-.19l-1.2-1.65A1.06,1.06,0,0,1,64.9,195.24ZM59.7,199l3-2.14a1.05,1.05,0,0,1,1.48.18l1.19,1.65a1.06,1.06,0,0,1-.27,1.47l-3,2.15a1.06,1.06,0,0,1-1.48-.18l-1.2-1.66A1.08,1.08,0,0,1,59.7,199Zm-5.2,3.78,3-2.15a1.06,1.06,0,0,1,1.48.18l1.2,1.66a1,1,0,0,1-.28,1.46l-3,2.16a1.05,1.05,0,0,1-1.48-.19l-1.2-1.66A1.05,1.05,0,0,1,54.5,202.79Zm-5.19,3.78,3-2.16a1.05,1.05,0,0,1,1.47.19L55,206.25a1.07,1.07,0,0,1-.28,1.47l-3,2.16a1.07,1.07,0,0,1-1.48-.19L49,208A1,1,0,0,1,49.31,206.57Zm-5.19,3.77,3-2.15a1.06,1.06,0,0,1,1.48.19l1.2,1.65a1.06,1.06,0,0,1-.28,1.46l-3,2.15a1.05,1.05,0,0,1-1.48-.19l-1.2-1.64A1.06,1.06,0,0,1,44.12,210.34Zm-5.2,3.77,3-2.16a1.07,1.07,0,0,1,1.48.19l1.2,1.66a1,1,0,0,1-.27,1.46l-3,2.16a1.07,1.07,0,0,1-1.48-.19l-1.2-1.65A1.07,1.07,0,0,1,38.92,214.11Zm5.28,16.7H42l-4.34-10.17h2.46l3,7.65,3.08-7.65H48.7Zm7.06,0H49.55v-7.93h1.71Zm-2-13.39a1,1,0,0,1-1.47-.19l-1.21-1.65a1.06,1.06,0,0,1,.28-1.47l3-2.15a1.05,1.05,0,0,1,1.47.19l1.21,1.65a1.07,1.07,0,0,1-.28,1.47Zm10.43,12.35a1.92,1.92,0,0,1-1.41,1,9.44,9.44,0,0,1-1.38.07h-4V229.4h3.66a2.7,2.7,0,0,0,1.17-.17.83.83,0,0,0,.43-.75.9.9,0,0,0-.5-.84,2,2,0,0,0-.9-.16H55.25a3.1,3.1,0,0,1-2-.49,2.17,2.17,0,0,1-.59-.77,2.59,2.59,0,0,1-.21-1,2.65,2.65,0,0,1,.49-1.53,2.12,2.12,0,0,1,1.55-.78c.24,0,.59,0,1.07,0h4v1.41H56a6.74,6.74,0,0,0-1.07.07.72.72,0,0,0-.54.81.76.76,0,0,0,.45.77,2.75,2.75,0,0,0,1,.13h1.29a5,5,0,0,1,1.48.17,1.83,1.83,0,0,1,1.16,1,2.83,2.83,0,0,1,.26,1.23A2.5,2.5,0,0,1,59.69,229.77Zm.48-14.5-3,2.15a1.05,1.05,0,0,1-1.48-.18l-1.19-1.66a1.06,1.06,0,0,1,.27-1.47l3-2.15a1.07,1.07,0,0,1,1.48.19l1.2,1.65A1.08,1.08,0,0,1,60.17,215.27Zm8.17,13.79a2.93,2.93,0,0,1-1.59,1.49,5,5,0,0,1-1.84.31h-.12a5.19,5.19,0,0,1-2.23-.5,2.83,2.83,0,0,1-1.29-1.31,4.86,4.86,0,0,1-.44-2.16A4,4,0,0,1,62,223.66a4.33,4.33,0,0,1,2.82-.83,5.21,5.21,0,0,1,2.12.41,2.79,2.79,0,0,1,1.5,1.62,5.78,5.78,0,0,1,.34,2.1A5,5,0,0,1,68.34,229.06Zm9.74-6.61H74.67v8.36H72.49v-8.36H69.22v-1.81h8.86ZM85,224.29H82.77a4.75,4.75,0,0,0-1.27.12,1.26,1.26,0,0,0-.67.47,1.42,1.42,0,0,0-.23.46,5.28,5.28,0,0,0-.12.82H85v1.41H80.48a1.92,1.92,0,0,0,.61,1.43,2.89,2.89,0,0,0,1.75.4H85v1.41H82.77a9.57,9.57,0,0,1-1.6-.11,2.74,2.74,0,0,1-1.72-.93,4.48,4.48,0,0,1-.91-3,4.1,4.1,0,0,1,1.29-3.23,2.5,2.5,0,0,1,.94-.54,4.75,4.75,0,0,1,1.34-.16H85Zm7.45,0H89.92a2.11,2.11,0,0,0-1.68.61,2.75,2.75,0,0,0-.44,1.81,3,3,0,0,0,.68,2.31,2.45,2.45,0,0,0,1.5.38h2.46v1.41h-2.8a7.58,7.58,0,0,1-1.22-.07,2.81,2.81,0,0,1-2.1-1.64,5.42,5.42,0,0,1-.41-2.23,4.87,4.87,0,0,1,.63-2.61,2.73,2.73,0,0,1,1.21-1,5,5,0,0,1,2-.33h2.72Zm7.62,6.52h-1.7v-3.28h-3.1v3.28h-1.7v-7.93h1.7v3.24h3.1v-3.24h1.7Zm252.23,15.28a3,3,0,0,1-3,3H118.17V175.94H349.29a3,3,0,0,1,3,3Z"
     id="path12" />
  <g
     id="text67"
     class="cls-1"
     transform="translate(-8)"
     style="isolation:isolate">
    <text
       class="cls-2"
       transform="translate(136.9,219.45)"
       id="text14"
       style="font-weight:700;font-size:16px;font-family:OpenSans-Bold, 'Open Sans';isolation:isolate">BESPRECHUNGSRAUM 3</text>
  </g>
  <text
     class="cls-3"
     transform="translate(37.12 326.1)"
     id="text17">30</text>
  <text
     class="cls-4"
     transform="translate(107.01 326.1)"
     id="text19">31</text>
  <text
     class="cls-3"
     transform="translate(176.87 326.1)"
     id="text21">01</text>
  <text
     class="cls-3"
     transform="translate(246.74 326.1)"
     id="text23">02</text>
  <text
     class="cls-3"
     transform="translate(316.62 326.1)"
     id="text25">03</text>
  <text
     class="cls-5"
     transform="translate(35.55 345.67)"
     id="text27">MO</text>
  <text
     class="cls-5"
     transform="translate(37.67 280.99)"
     id="text29">Monat</text>
  <text
     class="cls-3"
     transform="translate(156.72 280.99)"
     id="text31">KW 00</text>
  <text
     class="cls-5"
     transform="translate(291.19 280.99)"
     id="text33">Monat</text>
  <text
     class="cls-6"
     transform="translate(110.43 345.67)"
     id="text35">DI</text>
  <text
     class="cls-5"
     transform="translate(179.55 345.67)"
     id="text37">MI</text>
  <text
     class="cls-5"
     transform="translate(246.94 345.67)"
     id="text39">DO</text>
  <text
     class="cls-5"
     transform="translate(319.93 345.67)"
     id="text41">FR</text>
  <text
     class="cls-7"
     transform="translate(464.59 25.51)"
     id="text43">Demnächst</text>
  <text
     class="cls-8"
     transform="translate(93.8 36.51)"
     id="text51">
    <tspan
       class="cls-9"
       id="tspan45">Besprechungstitel</tspan>
    <tspan
       class="cls-10"
       id="tspan49">
      <tspan
         x="-0.2"
         y="25.2"
         id="tspan47">Vorname Nachname</tspan>
    </tspan>
  </text>
  <text
     class="cls-3"
     transform="translate(21.95 106.62)"
     id="text57">00:00<tspan
   class="cls-11"
   id="tspan55">
  <tspan
     x="0"
     y="19.2"
     id="tspan53">00.00.2018</tspan>
</tspan>
</text>
  <text
     class="cls-3"
     transform="translate(299.67 106.62)"
     id="text63">00:00<tspan
   class="cls-11"
   id="tspan61">
  <tspan
     x="-28.08"
     y="19.2"
     id="tspan59">00.00.2018</tspan>
</tspan>
</text>
  <path
     d="M335.91,136.59a3.74,3.74,0,0,0-3.71,3.26H43a3.76,3.76,0,1,0,0,1H332.2a3.75,3.75,0,1,0,3.71-4.26Z"
     id="path65" />
  <text
     class="cls-12"
     transform="translate(401.68 171.25)"
     id="text73">
    <tspan
       class="cls-9"
       id="tspan67">Besprechungstitel</tspan>
    <tspan
       class="cls-10"
       id="tspan71">
      <tspan
         x="0"
         y="19.2"
         id="tspan69">Vorname Nachname</tspan>
    </tspan>
  </text>
  <text
     class="cls-3"
     transform="translate(411.68 216.36)"
     id="text79">00:00<tspan
   class="cls-11"
   id="tspan77">
  <tspan
     x="0"
     y="19.2"
     id="tspan75">00.00.2018</tspan>
</tspan>
</text>
  <text
     class="cls-3"
     transform="translate(566.38 216.36)"
     id="text85">00:00<tspan
   class="cls-11"
   id="tspan83">
  <tspan
     x="-28.08"
     y="19.2"
     id="tspan81">00.00.2018</tspan>
</tspan>
</text>
  <path
     d="M606.24,246.33a3.75,3.75,0,0,0-3.71,3.26H429.15a3.76,3.76,0,1,0,0,1H602.53a3.75,3.75,0,1,0,3.71-4.26Z"
     id="path87" />
  <text
     class="cls-12"
     transform="translate(401.68 280.99)"
     id="text95">
    <tspan
       class="cls-9"
       id="tspan89">Besprechungstitel</tspan>
    <tspan
       class="cls-10"
       id="tspan93">
      <tspan
         x="0"
         y="19.2"
         id="tspan91">Vorname Nachname</tspan>
    </tspan>
  </text>
  <text
     class="cls-3"
     transform="translate(411.68 326.1)"
     id="text101">00:00<tspan
   class="cls-11"
   id="tspan99">
  <tspan
     x="0"
     y="19.2"
     id="tspan97">00.00.2018</tspan>
</tspan>
</text>
  <text
     class="cls-3"
     transform="translate(566.38 326.1)"
     id="text107">00:00<tspan
   class="cls-11"
   id="tspan105">
  <tspan
     x="-28.08"
     y="19.2"
     id="tspan103">00.00.2018</tspan>
</tspan>
</text>
  <path
     d="M606.24,356.07a3.75,3.75,0,0,0-3.71,3.26H429.15a3.76,3.76,0,1,0,0,1H602.53a3.75,3.75,0,1,0,3.71-4.26Z"
     id="path109" />
  <circle
     cx="119"
     cy="359.83"
     r="3.75"
     id="circle111" />
  <text
     class="cls-12"
     transform="translate(401.68 61.51)"
     id="text119">
    <tspan
       class="cls-9"
       id="tspan113">Besprechungstitel</tspan>
    <tspan
       class="cls-10"
       id="tspan117">
      <tspan
         x="0"
         y="19.2"
         id="tspan115">Vorname Nachname</tspan>
    </tspan>
  </text>
  <text
     class="cls-13"
     transform="translate(21.95 80.71)"
     id="text121">von</text>
  <text
     class="cls-13"
     transform="translate(333.14 80.71)"
     id="text123">bis</text>
  <text
     class="cls-3"
     transform="translate(411.68 106.62)"
     id="text129">00:00<tspan
   class="cls-11"
   id="tspan127">
  <tspan
     x="0"
     y="19.2"
     id="tspan125">00.00.2018</tspan>
</tspan>
</text>
  <text
     class="cls-3"
     transform="translate(566.38 106.62)"
     id="text135">00:00<tspan
   class="cls-11"
   id="tspan133">
  <tspan
     x="-28.08"
     y="19.2"
     id="tspan131">00.00.2018</tspan>
</tspan>
</text>
  <path
     d="M606.24,136.59a3.75,3.75,0,0,0-3.71,3.26H429.15a3.76,3.76,0,1,0,0,1H602.53a3.75,3.75,0,1,0,3.71-4.26Z"
     id="path137" />
  <path
     d="M217.19,112.16a5.16,5.16,0,0,1,0-4.06,11.63,11.63,0,0,0,2.39-5.46.75.75,0,0,0,.55.3h.11c.55-.09.72-.72.82-1.8.19-2,.16-5.62-2.12-8.12-1.55-1.72-3.88-2.58-6.92-2.58-3.29,0-5.8.88-7.46,2.63a9.26,9.26,0,0,0-2.19,6.82,3.43,3.43,0,0,0,1.22,2.61,2,2,0,0,0,.89.26,11.71,11.71,0,0,0,2.36,5.35,5.12,5.12,0,0,1,0,4.06,12.23,12.23,0,0,0-2.69.6,12,12,0,0,0-6.21-3.71.48.48,0,0,0-.11-.29L196.39,107a.49.49,0,0,0-.37-.18.57.57,0,0,0-.39.16l-.48.53a6.67,6.67,0,0,1,.33-4.28,15,15,0,0,0,3-7,6.1,6.1,0,0,0,1-1.54,2.41,2.41,0,0,0,0-1.36,2.27,2.27,0,0,1-.08-.64,2,2,0,0,1,.25-.65A2.25,2.25,0,0,0,200,90.8l0-.29a7.77,7.77,0,0,0-.32-1.68,3,3,0,0,0-.75-1,4.2,4.2,0,0,1-.45-.55,5.67,5.67,0,0,0-.83-1l-.39-.42a10.45,10.45,0,0,0-1.31-1.34,11.81,11.81,0,0,0-1.51-1.13,2.45,2.45,0,0,1-.51-.51,2.54,2.54,0,0,0-1-.84,2.14,2.14,0,0,0-1.37,0,2,2,0,0,1-.68.09,2.22,2.22,0,0,1-.6-.39,2.06,2.06,0,0,0-1.25-.61,4.22,4.22,0,0,0-1.31.29,4.72,4.72,0,0,1-.71.2,6,6,0,0,0-1.27.46l-.6.25a9.33,9.33,0,0,0-1.42.69l-.34.19a7.2,7.2,0,0,0-1.1.79c-.16.13-.31.26-.48.38s-.34.25-.51.36a5.86,5.86,0,0,0-1.06.83,7,7,0,0,0-.88,1.23c-.08.13-.16.27-.25.4a8.48,8.48,0,0,0-.83,1.78,5.47,5.47,0,0,0-.23,1.62l0,.32a6.91,6.91,0,0,0,.17,1.93,7.25,7.25,0,0,0,.67,1.81,2.47,2.47,0,0,1,.19.63,3.31,3.31,0,0,0,.51,1.25,15,15,0,0,0,3,6.75,6.55,6.55,0,0,1,.4,3.81l-.07-.08a.52.52,0,0,0-.69,0l-1.88,1.67a.51.51,0,0,0-.17.34s0,.06,0,.09a12,12,0,0,0-6.24,3.72,11.77,11.77,0,0,0-2.7-.61,4.83,4.83,0,0,1-.16-.5,37,37,0,0,0,4.05-1.15.47.47,0,0,0,.32-.35.49.49,0,0,0-.12-.46c-1.26-1.35-1.08-2.44-.74-4.61,0-.29.09-.61.14-.94.44.47.66.62.83.62a.57.57,0,0,0,.28-.12.59.59,0,0,0,.2-.54c0-.7.23-6.66-2.06-10.78a3.18,3.18,0,0,0-2.57-1.94,3.08,3.08,0,0,0-1.48.38c-1.21-.59-6.58-3-10.11.32-3.81,3.53-4.31,11.43-4.33,11.77a.49.49,0,0,0,.13.36.53.53,0,0,0,.35.17H156a9,9,0,0,0,2.23-.34,12.09,12.09,0,0,1-1.22,5.49.49.49,0,0,0,.12.61,10,10,0,0,0,3.8,1.68c0,.11-.06.22-.11.33-8.6.91-9.89,8.82-9.89,13.49a.5.5,0,0,0,.5.5h75.16a.5.5,0,0,0,.5-.5C227.08,121,225.79,113.07,217.19,112.16Zm-11.74-9.52a2.91,2.91,0,0,0,.58-.21,19.77,19.77,0,0,0,4.07-2.91c1.92-1.63,3.91-3.3,5.44-3a3,3,0,0,1,1.94,1.8c.38.71.74,1.55,1.05,2.29l.11.26c0,.18,0,.36,0,.54a10.29,10.29,0,0,1-2.31,6.14v0h0a6.4,6.4,0,0,1-2.91,2.22.5.5,0,0,0,.11,1h.11a5.23,5.23,0,0,0,2.15-1.19,6.2,6.2,0,0,0,.45,3l-4.17,4-4.33-4a6.21,6.21,0,0,0,0-4.84.54.54,0,0,0-.07-.13A10.67,10.67,0,0,1,205.45,102.64ZM196,108.09l.8,1L192,115.15l-.58-2.05Zm-13.5-.08,5,5.08-.6,2.11L181.33,109Zm-22.84-4.46a11.64,11.64,0,0,0,5.11-4.28,50.45,50.45,0,0,1,3-4,53.54,53.54,0,0,0,4.39,6l.48.58a10.49,10.49,0,0,1-2.3,5.75v0h0a6.4,6.4,0,0,1-2.91,2.22.51.51,0,0,0-.37.6.5.5,0,0,0,.48.39h.11a5.23,5.23,0,0,0,2.15-1.19,6.22,6.22,0,0,0,.53,3.12c-.11.46-.76,2.31-4.37,2.31s-4.2-1.85-4.29-2.3a6.17,6.17,0,0,0,.05-5,.33.33,0,0,0-.07-.13A10.93,10.93,0,0,1,159.64,103.55Zm1.14,9.64c.31.93,1.42,2.8,5.18,2.8s4.92-1.88,5.25-2.8a10.8,10.8,0,0,1,2,.43c-2.58,3.5-3.23,8.09-3.28,11.53h-18C152,120.81,153.38,114.06,160.78,113.19Zm28.14,12h-18c.09-5.25,1.63-13.37,9.86-15.23l6,6.62a.52.52,0,0,0,.38.17h.11a.52.52,0,0,0,.37-.36l.59-2.1.72,1.3ZM188.67,113a.47.47,0,0,0-.13-.15h0a.57.57,0,0,0-.12-.26l-4.63-4.68a7.68,7.68,0,0,0-.35-5.12.54.54,0,0,0-.07-.13,13.73,13.73,0,0,1-2.88-6.61c.5-2.46,1.56-5.87,2.48-6.24l.68-.28a17,17,0,0,1,6.46-1.65c1,0,3.7,0,5,.79a8.08,8.08,0,0,1,.72.83,18.35,18.35,0,0,1,1.46,6.5.67.67,0,0,0,.17.5,13.82,13.82,0,0,1-2.81,6.16v0h0s-1.81,2.44-3.78,2.89a.49.49,0,0,0-.38.59.5.5,0,0,0,.49.39h.11a6.86,6.86,0,0,0,2.95-1.71,7.53,7.53,0,0,0,.35,3.54l-3.88,4.26a.93.93,0,0,0-.05.1l-.15.12a.5.5,0,0,0-.14.15l-.74,1.37Zm1.25,12.15v-9.61l.77-1.41.63,2.24a.5.5,0,0,0,.38.35h.1a.49.49,0,0,0,.39-.19l5.18-6.59c8.1,1.91,9.62,10,9.7,15.2Zm18.15,0c0-3.44-.69-8-3.25-11.54a11.23,11.23,0,0,1,2.17-.45l4.76,4.37a.46.46,0,0,0,.33.13.52.52,0,0,0,.35-.14l4.59-4.36c7.58.77,9,7.61,9.06,12Z"
     id="path139" />
  <path
     d="M199.25,121.24h-5.5a.5.5,0,0,0-.5.5.5.5,0,0,0,.5.5h5.5a.5.5,0,0,0,.5-.5A.5.5,0,0,0,199.25,121.24Z"
     id="path141" />
</svg>
