<?xml version="1.0" encoding="UTF-8" standalone="no"?>
<svg
   xmlns:dc="http://purl.org/dc/elements/1.1/"
   xmlns:cc="http://creativecommons.org/ns#"
   xmlns:rdf="http://www.w3.org/1999/02/22-rdf-syntax-ns#"
   xmlns:svg="http://www.w3.org/2000/svg"
   xmlns="http://www.w3.org/2000/svg"
   xmlns:sodipodi="http://sodipodi.sourceforge.net/DTD/sodipodi-0.dtd"
   xmlns:inkscape="http://www.inkscape.org/namespaces/inkscape"
   id="Ebene_1"
   data-name="Ebene 1"
   viewBox="0 0 640 384"
   version="1.1"
   sodipodi:docname="vorlage.svg"
   inkscape:version="0.92.2 2405546, 2018-03-11">
  <metadata
     id="metadata5739">
    <rdf:RDF>
      <cc:Work
         rdf:about="">
        <dc:format>image/svg+xml</dc:format>
        <dc:type
           rdf:resource="http://purl.org/dc/dcmitype/StillImage" />
        <dc:title>Tuerschild_flaechen</dc:title>
      </cc:Work>
    </rdf:RDF>
  </metadata>
  <sodipodi:namedview
     pagecolor="#ffffff"
     bordercolor="#666666"
     borderopacity="1"
     objecttolerance="10"
     gridtolerance="10"
     guidetolerance="10"
     inkscape:pageopacity="0"
     inkscape:pageshadow="2"
     inkscape:window-width="2880"
     inkscape:window-height="1575"
     id="namedview5737"
     showgrid="false"
     inkscape:zoom="2.4583333"
     inkscape:cx="377.59836"
     inkscape:cy="210.37783"
     inkscape:window-x="0"
     inkscape:window-y="0"
     inkscape:window-maximized="0"
     inkscape:current-layer="Ebene_1"
     showguides="true"
     inkscape:guide-bbox="true" />
  <defs
     id="defs5597">
    <style
       id="style5595">.cls-1,.cls-12,.cls-13,.cls-2,.cls-7,.cls-8{isolation:isolate;}.cls-11,.cls-12,.cls-13,.cls-2,.cls-5,.cls-6,.cls-7{font-size:16px;}.cls-12,.cls-2,.cls-4,.cls-6,.cls-7,.cls-8{font-family:OpenSans-Bold, Open Sans;}.cls-2,.cls-4,.cls-6,.cls-7,.cls-9{font-weight:700;}.cls-3,.cls-4,.cls-8{font-size:21px;}.cls-3,.cls-5{font-family:OpenSans-Regular, Open Sans;}.cls-7{fill:#fff;}.cls-10,.cls-13{font-family:OpenSans-Italic, Open Sans;font-style:italic;}</style>
    <clipPath
       id="clipPath32"
       clipPathUnits="userSpaceOnUse">
      <path
         inkscape:connector-curvature="0"
         id="path30"
         d="M 0,595 H 842 V 0 H 0 Z" />
    </clipPath>
  </defs>
  <title
     id="title5599">Tuerschild_flaechen</title>
  <rect
     style="fill:#ffffff;stroke:#000000;stroke-width:1.03534353"
     y="0.51766968"
     x="0.46164739"
     height="382.96466"
     width="638.96466"
     id="rect3701" />
  <g
     id="g233"
     inkscape:label="logo_visotech"
     transform="matrix(0.15496525,0,0,-0.15496525,12.909065,98.048255)"
     style="fill:#000000">
    <g
       id="g129"
       transform="translate(206.564,210.4521)"
       style="fill:#000000">
      <path
         d="m 0,0 -44.928,-101.664 h -21.96 L -110.232,0 h 24.624 L -55.368,-76.464 -24.624,0 Z"
         style="fill:#000000;fill-opacity:1;fill-rule:evenodd;stroke:none"
         id="path127"
         inkscape:connector-curvature="0" />
    </g>
    <path
       d="m 215.06,188.061 h 17.064 V 108.789 H 215.06 Z"
       style="fill:#000000;fill-opacity:1;fill-rule:evenodd;stroke:none"
       id="path131"
       inkscape:connector-curvature="0" />
    <g
       id="g231"
       style="fill:#000000">
      <g
         id="g229"
         clip-path="url(#clipPath32)"
         style="fill:#000000">
        <g
           id="g135"
           transform="translate(248.252,108.7881)"
           style="fill:#000000">
          <path
             d="m 0,0 v 14.111 h 36.576 c 5.832,0 9.792,0.577 11.736,1.729 2.808,1.656 4.248,4.177 4.248,7.488 0,3.816 -1.656,6.624 -4.968,8.424 -1.872,1.008 -4.896,1.512 -9,1.512 H 23.76 c -9.072,0 -15.624,1.656 -19.584,4.896 -2.52,2.016 -4.464,4.609 -5.904,7.704 -1.368,3.167 -2.088,6.48 -2.088,10.008 0,5.544 1.656,10.655 4.896,15.264 3.24,4.391 8.352,6.984 15.48,7.776 2.376,0.216 5.904,0.36 10.656,0.36 H 66.96 V 65.16 H 31.104 c -5.4,-0.072 -8.928,-0.288 -10.656,-0.721 -3.6,-0.863 -5.4,-3.599 -5.4,-8.063 0,-3.816 1.44,-6.336 4.464,-7.632 2.088,-0.936 5.4,-1.368 10.152,-1.368 H 42.48 c 6.552,0 11.52,-0.576 14.76,-1.656 5.616,-1.944 9.576,-5.256 11.664,-10.008 1.728,-3.816 2.592,-7.92 2.592,-12.312 0,-4.753 -1.152,-9.072 -3.384,-12.961 C 65.016,5.04 60.264,1.8 54,0.792 50.904,0.288 46.368,0 40.248,0 Z"
             style="fill:#000000;fill-opacity:1;fill-rule:evenodd;stroke:none"
             id="path133"
             inkscape:connector-curvature="0" />
        </g>
        <g
           id="g139"
           transform="translate(367.2681,188.5645)"
           style="fill:#000000">
          <path
             d="m 0,0 v 0 -13.393 c -7.776,0 -13.392,-2.519 -16.776,-7.56 -2.664,-3.959 -3.96,-10.296 -3.96,-19.079 0,-9.288 1.656,-16.056 5.04,-20.448 3.24,-4.249 8.496,-6.409 15.696,-6.481 v -13.247 c -8.496,0.144 -15.912,1.8 -22.32,4.968 -5.544,2.807 -9.864,7.128 -12.816,13.103 -2.952,5.905 -4.392,13.105 -4.392,21.6 0,15.12 3.744,25.849 11.376,32.257 6.408,5.4 15.768,8.208 28.152,8.28 m 0,0 c 7.992,0 15.048,-1.369 21.168,-4.104 7.128,-3.168 12.096,-8.568 14.976,-16.201 2.304,-5.903 3.456,-12.887 3.456,-20.952 0,-8.063 -1.44,-15.048 -4.176,-20.951 -3.456,-7.129 -8.712,-12.097 -15.84,-14.904 C 14.256,-79.2 8.136,-80.208 1.224,-80.208 H 0 v 13.247 h 0.216 c 6.984,0 12.24,2.232 15.552,6.553 3.312,4.391 5.04,11.088 5.04,20.232 0,8.28 -1.368,14.615 -4.104,19.008 -3.168,5.111 -8.712,7.775 -16.56,7.775 H 0 Z"
             style="fill:#000000;fill-opacity:1;fill-rule:evenodd;stroke:none"
             id="path137"
             inkscape:connector-curvature="0" />
        </g>
        <g
           id="g143"
           transform="translate(444.1641,192.3799)"
           style="fill:#000000">
          <path
             d="m 0,0 h -32.688 v 18.072 h 88.56 V 0 H 21.816 V -83.592 H 0 Z"
             style="fill:#000000;fill-opacity:1;fill-rule:evenodd;stroke:none"
             id="path141"
             inkscape:connector-curvature="0" />
        </g>
        <g
           id="g147"
           transform="translate(569.084,188.0605)"
           style="fill:#000000">
          <path
             d="m 0,0 v -14.112 h -22.248 c -5.832,0 -10.08,-0.433 -12.672,-1.225 -2.664,-0.792 -4.824,-2.304 -6.624,-4.607 -1.151,-1.513 -1.944,-3.097 -2.376,-4.681 -0.433,-1.583 -0.792,-4.319 -1.152,-8.136 H 0 v -14.111 h -45.072 c 0.576,-6.841 2.592,-11.593 6.049,-14.257 3.455,-2.736 9.287,-4.032 17.567,-4.032 H 0 v -14.111 h -22.248 c -5.977,0 -11.304,0.359 -15.912,1.151 -7.2,1.08 -12.888,4.249 -17.208,9.288 -6.048,7.272 -9.072,17.137 -9.072,29.592 0,13.824 4.32,24.553 12.888,32.257 2.88,2.591 6.048,4.391 9.361,5.4 C -38.88,-0.576 -34.416,0 -28.8,0 Z"
             style="fill:#000000;fill-opacity:1;fill-rule:evenodd;stroke:none"
             id="path145"
             inkscape:connector-curvature="0" />
        </g>
        <g
           id="g151"
           transform="translate(643.46,122.8994)"
           style="fill:#000000">
          <path
             d="m 0,0 v -14.111 h -27.937 c -5.328,0 -9.359,0.288 -12.239,0.792 -9.792,1.943 -16.776,7.343 -20.952,16.343 -2.736,5.977 -4.103,13.392 -4.103,22.248 0,10.657 2.16,19.369 6.335,26.064 2.952,4.753 7.056,8.28 12.096,10.513 5.04,2.16 11.592,3.312 19.655,3.312 H 0 V 51.049 h -25.2 c -7.632,0 -13.176,-2.017 -16.776,-6.048 -2.952,-3.385 -4.392,-9.36 -4.392,-18.145 0,-11.664 2.305,-19.367 6.84,-23.04 C -36.288,1.296 -31.32,0 -24.552,0 Z"
             style="fill:#000000;fill-opacity:1;fill-rule:evenodd;stroke:none"
             id="path149"
             inkscape:connector-curvature="0" />
        </g>
        <g
           id="g155"
           transform="translate(719.6357,188.0605)"
           style="fill:#000000">
          <path
             d="M 0,0 V -79.272 H -16.991 V -46.44 H -48.024 V -79.272 H -65.016 V 0 h 16.992 v -32.4 h 31.033 V 0 Z"
             style="fill:#000000;fill-opacity:1;fill-rule:evenodd;stroke:none"
             id="path153"
             inkscape:connector-curvature="0" />
        </g>
        <g
           id="g159"
           transform="translate(346.8198,275.54)"
           style="fill:#000000">
          <path
             d="m 0,0 29.592,21.528 c 4.824,3.456 11.52,2.592 14.832,-1.873 L 56.376,3.168 c 3.312,-4.536 2.088,-11.16 -2.736,-14.689 L 23.976,-33.048 c -4.824,-3.456 -11.448,-2.664 -14.76,1.872 l -12.024,16.56 C -6.12,-10.08 -4.824,-3.528 0,0"
             style="fill:#000000;fill-opacity:1;fill-rule:evenodd;stroke:none"
             id="path157"
             inkscape:connector-curvature="0" />
        </g>
        <g
           id="g163"
           transform="translate(502.4121,388.5801)"
           style="fill:#000000">
          <path
             d="m 0,0 29.664,21.528 c 4.824,3.528 11.447,2.664 14.76,-1.872 L 56.447,3.168 C 59.76,-1.368 58.464,-7.992 53.64,-11.52 L 24.048,-32.976 C 19.224,-36.504 12.527,-35.64 9.216,-31.104 L -2.736,-14.616 C -6.048,-10.08 -4.824,-3.456 0,0"
             style="fill:#000000;fill-opacity:1;fill-rule:evenodd;stroke:none"
             id="path161"
             inkscape:connector-curvature="0" />
        </g>
        <g
           id="g167"
           transform="translate(319.3882,313.1958)"
           style="fill:#000000">
          <path
             d="m 0,0 29.592,21.528 c 4.896,3.528 11.52,2.664 14.832,-1.872 L 56.376,3.168 c 3.312,-4.536 2.088,-11.16 -2.736,-14.616 L 23.976,-32.904 c -4.824,-3.527 -11.448,-2.664 -14.76,1.872 L -2.808,-14.616 C -6.048,-10.08 -4.824,-3.456 0,0"
             style="fill:#000000;fill-opacity:1;fill-rule:evenodd;stroke:none"
             id="path165"
             inkscape:connector-curvature="0" />
        </g>
        <g
           id="g171"
           transform="translate(291.9561,350.9961)"
           style="fill:#000000">
          <path
             d="m 0,0 29.664,21.528 c 4.824,3.456 11.448,2.592 14.76,-1.944 L 56.376,3.096 C 59.688,-1.44 58.464,-7.992 53.64,-11.52 L 23.976,-33.048 c -4.824,-3.528 -11.448,-2.664 -14.76,1.872 L -2.736,-14.688 C -6.048,-10.152 -4.824,-3.528 0,0"
             style="fill:#000000;fill-opacity:1;fill-rule:evenodd;stroke:none"
             id="path169"
             inkscape:connector-curvature="0" />
        </g>
        <g
           id="g175"
           transform="translate(212.6118,350.9961)"
           style="fill:#000000">
          <path
             d="m 0,0 29.664,21.528 c 4.824,3.528 11.448,2.664 14.76,-1.872 L 56.448,3.168 C 59.76,-1.368 58.464,-7.992 53.64,-11.52 L 24.048,-33.048 c -4.824,-3.456 -11.52,-2.664 -14.832,1.872 l -11.952,16.56 C -6.048,-10.08 -4.824,-3.528 0,0"
             style="fill:#000000;fill-opacity:1;fill-rule:evenodd;stroke:none"
             id="path173"
             inkscape:connector-curvature="0" />
        </g>
        <g
           id="g179"
           transform="translate(160.772,313.2681)"
           style="fill:#000000">
          <path
             d="m 0,0 29.592,21.528 c 4.824,3.528 11.448,2.664 14.76,-1.872 L 56.376,3.168 c 3.312,-4.536 2.016,-11.16 -2.808,-14.616 L 23.976,-32.904 c -4.824,-3.528 -11.52,-2.664 -14.76,1.871 L -2.808,-14.616 C -6.12,-10.08 -4.824,-3.456 0,0"
             style="fill:#000000;fill-opacity:1;fill-rule:evenodd;stroke:none"
             id="path177"
             inkscape:connector-curvature="0" />
        </g>
        <g
           id="g183"
           transform="translate(108.8599,275.6836)"
           style="fill:#000000">
          <path
             d="m 0,0 29.592,21.528 c 4.824,3.385 11.52,2.593 14.76,-1.872 L 56.376,3.096 C 59.688,-1.439 58.464,-7.992 53.64,-11.52 L 23.976,-33.048 c -4.824,-3.528 -11.448,-2.663 -14.76,1.872 L -2.808,-14.688 C -6.12,-10.08 -4.824,-3.527 0,0"
             style="fill:#000000;fill-opacity:1;fill-rule:evenodd;stroke:none"
             id="path181"
             inkscape:connector-curvature="0" />
        </g>
        <g
           id="g187"
           transform="translate(188.2041,275.6113)"
           style="fill:#000000">
          <path
             d="m 0,0 29.592,21.529 c 4.824,3.456 11.448,2.592 14.76,-1.872 L 56.376,3.168 C 59.688,-1.367 58.392,-7.991 53.568,-11.52 L 23.976,-33.047 c -4.824,-3.457 -11.52,-2.665 -14.76,1.943 L -2.808,-14.615 C -6.12,-10.079 -4.896,-3.527 0,0"
             style="fill:#000000;fill-opacity:1;fill-rule:evenodd;stroke:none"
             id="path185"
             inkscape:connector-curvature="0" />
        </g>
        <g
           id="g191"
           transform="translate(240.0439,313.2681)"
           style="fill:#000000">
          <path
             d="m 0,0 29.664,21.528 c 4.824,3.528 11.448,2.664 14.76,-1.872 L 56.448,3.096 C 59.688,-1.44 58.464,-7.992 53.64,-11.52 L 24.048,-32.976 c -4.824,-3.527 -11.52,-2.664 -14.832,1.872 L -2.736,-14.616 C -6.048,-10.08 -4.824,-3.528 0,0"
             style="fill:#000000;fill-opacity:1;fill-rule:evenodd;stroke:none"
             id="path189"
             inkscape:connector-curvature="0" />
        </g>
        <g
           id="g195"
           transform="translate(267.4761,275.6113)"
           style="fill:#000000">
          <path
             d="m 0,0 29.664,21.529 c 4.824,3.384 11.448,2.592 14.76,-1.945 L 56.448,3.097 C 59.688,-1.439 58.464,-7.991 53.64,-11.52 L 23.976,-33.047 c -4.824,-3.528 -11.448,-2.665 -14.76,1.871 L -2.736,-14.688 C -6.048,-10.151 -4.824,-3.527 0,0"
             style="fill:#000000;fill-opacity:1;fill-rule:evenodd;stroke:none"
             id="path193"
             inkscape:connector-curvature="0" />
        </g>
        <g
           id="g199"
           transform="translate(474.9805,426.3081)"
           style="fill:#000000">
          <path
             d="m 0,0 29.663,21.528 c 4.824,3.528 11.448,2.664 14.761,-1.872 L 56.447,3.168 C 59.76,-1.368 58.463,-7.992 53.64,-11.448 L 24.047,-32.976 c -4.823,-3.528 -11.52,-2.664 -14.759,1.872 L -2.736,-14.616 C -6.049,-10.08 -4.824,-3.456 0,0"
             style="fill:#000000;fill-opacity:1;fill-rule:evenodd;stroke:none"
             id="path197"
             inkscape:connector-curvature="0" />
        </g>
        <g
           id="g203"
           transform="translate(447.6201,464.1079)"
           style="fill:#000000">
          <path
             d="m 0,0 29.592,21.528 c 4.824,3.456 11.448,2.664 14.761,-1.872 L 56.376,3.096 C 59.688,-1.44 58.392,-7.992 53.568,-11.52 L 23.976,-33.048 c -4.824,-3.528 -11.52,-2.664 -14.76,1.872 L -2.808,-14.688 C -6.12,-10.08 -4.824,-3.528 0,0"
             style="fill:#000000;fill-opacity:1;fill-rule:evenodd;stroke:none"
             id="path201"
             inkscape:connector-curvature="0" />
        </g>
        <g
           id="g207"
           transform="translate(368.3481,464.1079)"
           style="fill:#000000">
          <path
             d="m 0,0 29.592,21.528 c 4.824,3.528 11.52,2.664 14.832,-1.872 L 56.304,3.168 c 3.312,-4.536 2.088,-11.16 -2.736,-14.688 L 23.976,-32.976 c -4.824,-3.528 -11.448,-2.664 -14.76,1.872 L -2.808,-14.616 C -6.12,-10.08 -4.824,-3.528 0,0"
             style="fill:#000000;fill-opacity:1;fill-rule:evenodd;stroke:none"
             id="path205"
             inkscape:connector-curvature="0" />
        </g>
        <g
           id="g211"
           transform="translate(316.436,426.4521)"
           style="fill:#000000">
          <path
             d="m 0,0 29.664,21.456 c 4.824,3.528 11.448,2.664 14.76,-1.872 L 56.376,3.096 C 59.688,-1.44 58.464,-8.064 53.64,-11.52 L 23.976,-33.048 c -4.824,-3.528 -11.448,-2.664 -14.76,1.872 L -2.808,-14.688 C -6.048,-10.152 -4.824,-3.528 0,0"
             style="fill:#000000;fill-opacity:1;fill-rule:evenodd;stroke:none"
             id="path209"
             inkscape:connector-curvature="0" />
        </g>
        <g
           id="g215"
           transform="translate(264.5239,388.7241)"
           style="fill:#000000">
          <path
             d="m 0,0 29.664,21.528 c 4.824,3.456 11.448,2.664 14.76,-1.872 L 56.448,3.096 C 59.688,-1.44 58.464,-7.992 53.64,-11.52 L 24.048,-33.048 c -4.896,-3.528 -11.52,-2.664 -14.832,1.872 l -11.952,16.56 C -6.048,-10.08 -4.824,-3.528 0,0"
             style="fill:#000000;fill-opacity:1;fill-rule:evenodd;stroke:none"
             id="path213"
             inkscape:connector-curvature="0" />
        </g>
        <g
           id="g219"
           transform="translate(343.8682,388.6519)"
           style="fill:#000000">
          <path
             d="m 0,0 29.592,21.528 c 4.824,3.528 11.52,2.664 14.832,-1.872 L 56.376,3.168 c 3.312,-4.536 2.088,-11.16 -2.736,-14.616 L 23.976,-32.976 c -4.824,-3.528 -11.448,-2.664 -14.76,1.872 L -2.808,-14.616 C -6.048,-10.08 -4.824,-3.456 0,0"
             style="fill:#000000;fill-opacity:1;fill-rule:evenodd;stroke:none"
             id="path217"
             inkscape:connector-curvature="0" />
        </g>
        <g
           id="g223"
           transform="translate(423.1396,388.6519)"
           style="fill:#000000">
          <path
             d="m 0,0 29.592,21.528 c 4.825,3.456 11.52,2.664 14.761,-1.872 L 56.376,3.096 C 59.688,-1.44 58.393,-7.992 53.568,-11.52 L 23.977,-33.048 c -4.825,-3.528 -11.449,-2.664 -14.76,1.872 L -2.736,-14.688 C -6.048,-10.08 -4.751,-3.528 0,0"
             style="fill:#000000;fill-opacity:1;fill-rule:evenodd;stroke:none"
             id="path221"
             inkscape:connector-curvature="0" />
        </g>
        <g
           id="g227"
           transform="translate(395.7798,426.3799)"
           style="fill:#000000">
          <path
             d="m 0,0 29.52,21.528 c 4.824,3.528 11.52,2.664 14.761,-1.872 L 56.304,3.096 C 59.617,-1.44 58.392,-7.992 53.568,-11.52 L 23.976,-33.048 c -4.824,-3.456 -11.448,-2.664 -14.76,1.872 l -12.024,16.56 C -6.12,-10.08 -4.824,-3.528 0,0"
             style="fill:#000000;fill-opacity:1;fill-rule:evenodd;stroke:none"
             id="path225"
             inkscape:connector-curvature="0" />
        </g>
      </g>
    </g>
  </g>
  <text
     id="text237"
     y="68.47905"
     x="167.81404"
     style="font-style:normal;font-weight:normal;font-size:41.48821259px;line-height:1.25;font-family:sans-serif;letter-spacing:0px;word-spacing:0px;fill:#000000;fill-opacity:1;stroke:none;stroke-width:1.03720522"
     xml:space="preserve"><tspan
       style="stroke-width:1.03720522"
       y="68.47905"
       x="167.81404"
       id="tspan235"
       sodipodi:role="line">Besprechungsraum 4</tspan></text>
  <path
     inkscape:connector-curvature="0"
     id="path239"
     d="M 0.63329504,104.75227 H 639.85827"
     style="fill:none;stroke:#000000;stroke-width:1.08406186px;stroke-linecap:butt;stroke-linejoin:miter;stroke-opacity:1" />
  <path
     inkscape:connector-curvature="0"
     id="path241"
     d="M 143.9545,0.59313509 V 104.50788"
     style="fill:none;stroke:#000000;stroke-width:1.10985649px;stroke-linecap:butt;stroke-linejoin:miter;stroke-opacity:1" />
  <path
     style="fill:none;stroke:#000000;stroke-width:1.08422959px;stroke-linecap:butt;stroke-linejoin:miter;stroke-opacity:1"
     d="M 0.63329504,247.51616 H 640.05602"
     id="path243"
     inkscape:connector-curvature="0" />
  <text
     id="text253"
     y="299.60513"
     x="21.58535"
     style="font-style:normal;font-weight:normal;font-size:41.48821259px;line-height:1.25;font-family:sans-serif;letter-spacing:0px;word-spacing:0px;fill:#000000;fill-opacity:1;stroke:none;stroke-width:1.03720522"
     xml:space="preserve"><tspan
       id="tspan251"
       style="font-size:22.12704659px;stroke-width:1.03720522"
       y="299.60513"
       x="21.58535"
       sodipodi:role="line"> </tspan></text>
  <text
     id="text257"
     y="311.46149"
     x="117.63535"
     style="font-style:normal;font-weight:normal;font-size:41.48821259px;line-height:1.25;font-family:sans-serif;letter-spacing:0px;word-spacing:0px;fill:#000000;fill-opacity:1;stroke:none;stroke-width:1.03720522"
     xml:space="preserve"><tspan
       style="stroke-width:1.03720522"
       y="311.46149"
       x="117.63535"
       id="tspan255"
       sodipodi:role="line"> </tspan></text>
  <text
     id="text261"
     y="348.08511"
     x="119.50389"
     style="font-style:normal;font-weight:normal;font-size:41.48821259px;line-height:1.25;font-family:sans-serif;letter-spacing:0px;word-spacing:0px;fill:#000000;fill-opacity:1;stroke:none;stroke-width:1.03720522"
     xml:space="preserve"><tspan
       style="font-size:22.12704659px;stroke-width:1.03720522"
       y="348.08511"
       x="119.50389"
       id="tspan259"
       sodipodi:role="line"> </tspan></text>
  <text
     id="text265"
     y="348.83255"
     x="21.591745"
     style="font-style:normal;font-weight:normal;font-size:41.48821259px;line-height:1.25;font-family:sans-serif;letter-spacing:0px;word-spacing:0px;fill:#000000;fill-opacity:1;stroke:none;stroke-width:1.03720522"
     xml:space="preserve"><tspan
       style="font-size:22.12704659px;stroke-width:1.03720522"
       y="348.83255"
       x="21.591745"
       id="tspan263"
       sodipodi:role="line"> </tspan></text>
  <text
     xml:space="preserve"
     style="font-style:normal;font-weight:normal;font-size:41.48821259px;line-height:1.25;font-family:sans-serif;letter-spacing:0px;word-spacing:0px;fill:#000000;fill-opacity:1;stroke:none;stroke-width:1.03720522"
     x="21.58535"
     y="161.53806"
     id="text285"><tspan
       sodipodi:role="line"
       x="21.58535"
       y="161.53806"
       style="font-size:22.12704659px;fill:#000000;stroke-width:1.03720522"
       id="tspan283">bis </tspan></text>
  <text
     xml:space="preserve"
     style="font-style:normal;font-weight:normal;font-size:41.48821259px;line-height:1.25;font-family:sans-serif;letter-spacing:0px;word-spacing:0px;fill:#000000;fill-opacity:1;stroke:none;stroke-width:1.03720522"
     x="117.63535"
     y="173.39447"
     id="text289"><tspan
       sodipodi:role="line"
       id="tspan287"
       x="117.63535"
       y="173.39447"
       style="fill:#000000;stroke-width:1.03720522">Frei</tspan></text>
  <text
     xml:space="preserve"
     style="font-style:normal;font-weight:normal;font-size:41.48821259px;line-height:1.25;font-family:sans-serif;letter-spacing:0px;word-spacing:0px;fill:#000000;fill-opacity:1;stroke:none;stroke-width:1.03720522"
     x="115.01938"
     y="210.76553"
     id="text293"><tspan
       sodipodi:role="line"
       id="tspan291"
       x="115.01938"
       y="210.76553"
       style="font-size:22.12704659px;fill:#000000;stroke-width:1.03720522"></tspan></text>
  <text
     xml:space="preserve"
     style="font-style:normal;font-weight:normal;font-size:41.48821259px;line-height:1.25;font-family:sans-serif;letter-spacing:0px;word-spacing:0px;fill:#000000;fill-opacity:1;stroke:none;stroke-width:1.03720522"
     x="21.591745"
     y="210.76553"
     id="text297"><tspan
       sodipodi:role="line"
       id="tspan295"
       x="21.591745"
       y="210.76553"
       style="font-size:22.12704659px;fill:#000000;stroke-width:1.03720522">20:00</tspan></text>
  <text
     id="text261-3"
     y="371.49136"
     x="455.30743"
     style="font-style:normal;font-weight:normal;font-size:41.48821259px;line-height:1.25;font-family:sans-serif;letter-spacing:0px;word-spacing:0px;fill:#000000;fill-opacity:1;stroke:none;stroke-width:1.03720522"
     xml:space="preserve"><tspan
       style="font-size:16px;stroke-width:1.03720522"
       y="371.49136"
       x="455.30743"
       id="tspan259-6"
       sodipodi:role="line">2018-06-03T17:54:41</tspan></text>
</svg>
